%TF.GenerationSoftware,KiCad,Pcbnew,9.0.5*%
%TF.CreationDate,2025-11-26T15:00:46+01:00*%
%TF.ProjectId,planA,706c616e-412e-46b6-9963-61645f706362,rev?*%
%TF.SameCoordinates,Original*%
%TF.FileFunction,Copper,L1,Top*%
%TF.FilePolarity,Positive*%
%FSLAX46Y46*%
G04 Gerber Fmt 4.6, Leading zero omitted, Abs format (unit mm)*
G04 Created by KiCad (PCBNEW 9.0.5) date 2025-11-26 15:00:46*
%MOMM*%
%LPD*%
G01*
G04 APERTURE LIST*
G04 Aperture macros list*
%AMRoundRect*
0 Rectangle with rounded corners*
0 $1 Rounding radius*
0 $2 $3 $4 $5 $6 $7 $8 $9 X,Y pos of 4 corners*
0 Add a 4 corners polygon primitive as box body*
4,1,4,$2,$3,$4,$5,$6,$7,$8,$9,$2,$3,0*
0 Add four circle primitives for the rounded corners*
1,1,$1+$1,$2,$3*
1,1,$1+$1,$4,$5*
1,1,$1+$1,$6,$7*
1,1,$1+$1,$8,$9*
0 Add four rect primitives between the rounded corners*
20,1,$1+$1,$2,$3,$4,$5,0*
20,1,$1+$1,$4,$5,$6,$7,0*
20,1,$1+$1,$6,$7,$8,$9,0*
20,1,$1+$1,$8,$9,$2,$3,0*%
G04 Aperture macros list end*
%TA.AperFunction,SMDPad,CuDef*%
%ADD10RoundRect,0.375000X0.375000X-0.625000X0.375000X0.625000X-0.375000X0.625000X-0.375000X-0.625000X0*%
%TD*%
%TA.AperFunction,SMDPad,CuDef*%
%ADD11RoundRect,0.500000X1.400000X-0.500000X1.400000X0.500000X-1.400000X0.500000X-1.400000X-0.500000X0*%
%TD*%
%TA.AperFunction,ComponentPad*%
%ADD12C,1.600000*%
%TD*%
%TA.AperFunction,ComponentPad*%
%ADD13R,1.800000X1.800000*%
%TD*%
%TA.AperFunction,ComponentPad*%
%ADD14C,1.800000*%
%TD*%
%TA.AperFunction,ComponentPad*%
%ADD15RoundRect,0.250000X-0.550000X0.550000X-0.550000X-0.550000X0.550000X-0.550000X0.550000X0.550000X0*%
%TD*%
%TA.AperFunction,ComponentPad*%
%ADD16R,1.700000X1.700000*%
%TD*%
%TA.AperFunction,ComponentPad*%
%ADD17C,1.700000*%
%TD*%
%TA.AperFunction,ComponentPad*%
%ADD18RoundRect,0.250000X0.550000X-0.550000X0.550000X0.550000X-0.550000X0.550000X-0.550000X-0.550000X0*%
%TD*%
%TA.AperFunction,ComponentPad*%
%ADD19C,2.000000*%
%TD*%
%TA.AperFunction,SMDPad,CuDef*%
%ADD20R,1.500000X0.900000*%
%TD*%
%TA.AperFunction,SMDPad,CuDef*%
%ADD21R,0.900000X1.500000*%
%TD*%
%TA.AperFunction,SMDPad,CuDef*%
%ADD22R,0.900000X0.900000*%
%TD*%
%TA.AperFunction,ViaPad*%
%ADD23C,0.600000*%
%TD*%
%TA.AperFunction,Conductor*%
%ADD24C,1.000000*%
%TD*%
%TA.AperFunction,Conductor*%
%ADD25C,0.200000*%
%TD*%
%TA.AperFunction,Conductor*%
%ADD26C,0.500000*%
%TD*%
G04 APERTURE END LIST*
D10*
%TO.P,U2,1,GND*%
%TO.N,GND*%
X136950000Y-72820000D03*
%TO.P,U2,2,VO*%
%TO.N,VCC_3.3V*%
X139250000Y-72820000D03*
D11*
X139250000Y-66520000D03*
D10*
%TO.P,U2,3,VI*%
%TO.N,BT_7.4V*%
X141550000Y-72820000D03*
%TD*%
D12*
%TO.P,C2,1*%
%TO.N,BT_7.4V*%
X145750000Y-77170000D03*
%TO.P,C2,2*%
%TO.N,GND*%
X145750000Y-82170000D03*
%TD*%
D13*
%TO.P,Power,1,K*%
%TO.N,GND*%
X111750000Y-99170000D03*
D14*
%TO.P,Power,2,A*%
%TO.N,Net-(D1-A)*%
X109210000Y-99170000D03*
%TD*%
D12*
%TO.P,R4,1*%
%TO.N,ESP_3.3V*%
X121170000Y-124170000D03*
%TO.P,R4,2*%
%TO.N,Net-(U1-GPIO0{slash}BOOT)*%
X131330000Y-124170000D03*
%TD*%
D15*
%TO.P,C1,1*%
%TO.N,BT_7.4V*%
X141250000Y-78670000D03*
D12*
%TO.P,C1,2*%
%TO.N,GND*%
X141250000Y-80670000D03*
%TD*%
D16*
%TO.P,Battery,1,+*%
%TO.N,BT_7.4V*%
X147750000Y-72945000D03*
D17*
%TO.P,Battery,2,-*%
%TO.N,GND*%
X147750000Y-70405000D03*
%TD*%
D16*
%TO.P,SN1,1,GND*%
%TO.N,GND*%
X66750000Y-105370000D03*
D17*
%TO.P,SN1,2,IR*%
%TO.N,ESP_3.3V*%
X66750000Y-102830000D03*
%TO.P,SN1,3,D1*%
%TO.N,Net-(SN1-D1)*%
X66750000Y-100290000D03*
%TO.P,SN1,4,D2*%
%TO.N,Net-(SN1-D2)*%
X66750000Y-97750000D03*
%TO.P,SN1,5,D3*%
%TO.N,Net-(SN1-D3)*%
X66750000Y-95210000D03*
%TO.P,SN1,6,D4*%
%TO.N,Net-(SN1-D4)*%
X66750000Y-92670000D03*
%TO.P,SN1,7,D5*%
%TO.N,Net-(SN1-D5)*%
X66750000Y-90130000D03*
%TO.P,SN1,8,D6*%
%TO.N,Net-(SN1-D6)*%
X66750000Y-87590000D03*
%TO.P,SN1,9,D7*%
%TO.N,Net-(SN1-D7)*%
X66750000Y-85050000D03*
%TO.P,SN1,10,D8*%
%TO.N,Net-(SN1-D8)*%
X66750000Y-82510000D03*
%TO.P,SN1,11,VCC*%
%TO.N,ESP_3.3V*%
X66750000Y-79970000D03*
%TD*%
D18*
%TO.P,C5,1*%
%TO.N,ESP_3.3V*%
X125400000Y-99860000D03*
D12*
%TO.P,C5,2*%
%TO.N,GND*%
X125400000Y-97860000D03*
%TD*%
%TO.P,C7,1*%
%TO.N,Net-(U1-EN)*%
X116750000Y-100670000D03*
%TO.P,C7,2*%
%TO.N,GND*%
X116750000Y-95670000D03*
%TD*%
D16*
%TO.P,J1,1,DTR*%
%TO.N,unconnected-(J1-DTR-Pad1)*%
X98750000Y-64130000D03*
D17*
%TO.P,J1,2,RX*%
%TO.N,TXD0*%
X98750000Y-66670000D03*
%TO.P,J1,3,TX*%
%TO.N,RXD0*%
X98750000Y-69210000D03*
%TO.P,J1,4,VCC*%
%TO.N,Net-(J1-VCC)*%
X98750000Y-71750000D03*
%TO.P,J1,5,CTS*%
%TO.N,unconnected-(J1-CTS-Pad5)*%
X98750000Y-74290000D03*
%TO.P,J1,6,GND*%
%TO.N,GND*%
X98750000Y-76830000D03*
%TD*%
D12*
%TO.P,R1,1*%
%TO.N,ESP_3.3V*%
X123750000Y-109170000D03*
%TO.P,R1,2*%
%TO.N,Net-(D1-A)*%
X113590000Y-109170000D03*
%TD*%
D19*
%TO.P,Boot,1,1*%
%TO.N,Net-(U1-GPIO0{slash}BOOT)*%
X93500000Y-98420000D03*
X100000000Y-98420000D03*
%TO.P,Boot,2,2*%
%TO.N,GND*%
X93500000Y-102920000D03*
X100000000Y-102920000D03*
%TD*%
D15*
%TO.P,C3,1*%
%TO.N,VCC_3.3V*%
X132250000Y-78670000D03*
D12*
%TO.P,C3,2*%
%TO.N,GND*%
X132250000Y-80670000D03*
%TD*%
%TO.P,R2,1*%
%TO.N,ESP_3.3V*%
X123750000Y-105670000D03*
%TO.P,R2,2*%
%TO.N,Net-(U1-EN)*%
X113590000Y-105670000D03*
%TD*%
D16*
%TO.P,USB Vcc Bat.,1,Pin_1*%
%TO.N,VCC_3.3V*%
X110830000Y-53170000D03*
D17*
%TO.P,USB Vcc Bat.,2,Pin_2*%
%TO.N,ESP_3.3V*%
X108290000Y-53170000D03*
%TO.P,USB Vcc Bat.,3,Pin_3*%
%TO.N,Net-(J1-VCC)*%
X105750000Y-53170000D03*
%TD*%
D19*
%TO.P,Start/Stop,1,1*%
%TO.N,GND*%
X104000000Y-131920000D03*
X110500000Y-131920000D03*
%TO.P,Start/Stop,2,2*%
%TO.N,Net-(U1-MTDO{slash}GPIO40{slash}CLK_OUT2)*%
X104000000Y-136420000D03*
X110500000Y-136420000D03*
%TD*%
D13*
%TO.P,Wifi,1,K*%
%TO.N,GND*%
X118475000Y-134670000D03*
D14*
%TO.P,Wifi,2,A*%
%TO.N,Net-(D4-A)*%
X121015000Y-134670000D03*
%TD*%
D19*
%TO.P,Reset,1,1*%
%TO.N,GND*%
X93750000Y-87170000D03*
X100250000Y-87170000D03*
%TO.P,Reset,2,2*%
%TO.N,Net-(U1-EN)*%
X93750000Y-91670000D03*
X100250000Y-91670000D03*
%TD*%
D12*
%TO.P,R3,1*%
%TO.N,Net-(D4-A)*%
X121170000Y-128170000D03*
%TO.P,R3,2*%
%TO.N,Net-(U1-MTMS{slash}GPIO42)*%
X131330000Y-128170000D03*
%TD*%
D16*
%TO.P,DRV8833,1,IN4*%
%TO.N,GPIO18*%
X122877500Y-64161250D03*
D17*
%TO.P,DRV8833,2,IN3*%
%TO.N,GPIO17*%
X122877500Y-66701250D03*
%TO.P,DRV8833,3,GND*%
%TO.N,GND*%
X122877500Y-69241250D03*
%TO.P,DRV8833,4,VCC*%
%TO.N,BT_7.4V*%
X122877500Y-71781250D03*
%TO.P,DRV8833,5,IN2*%
%TO.N,GPIO45*%
X122877500Y-74321250D03*
%TO.P,DRV8833,6,IN1*%
%TO.N,GPIO46*%
X122877500Y-76861250D03*
%TD*%
D20*
%TO.P,U1,1,GND*%
%TO.N,GND*%
X130750000Y-100240000D03*
%TO.P,U1,2,3V3*%
%TO.N,ESP_3.3V*%
X130750000Y-101510000D03*
%TO.P,U1,3,EN*%
%TO.N,Net-(U1-EN)*%
X130750000Y-102780000D03*
%TO.P,U1,4,GPIO4/TOUCH4/ADC1_CH3*%
%TO.N,Net-(SN1-D7)*%
X130750000Y-104050000D03*
%TO.P,U1,5,GPIO5/TOUCH5/ADC1_CH4*%
%TO.N,Net-(SN1-D6)*%
X130750000Y-105320000D03*
%TO.P,U1,6,GPIO6/TOUCH6/ADC1_CH5*%
%TO.N,Net-(SN1-D5)*%
X130750000Y-106590000D03*
%TO.P,U1,7,GPIO7/TOUCH7/ADC1_CH6*%
%TO.N,Net-(SN1-D4)*%
X130750000Y-107860000D03*
%TO.P,U1,8,GPIO15/U0RTS/ADC2_CH4/XTAL_32K_P*%
%TO.N,unconnected-(U1-GPIO15{slash}U0RTS{slash}ADC2_CH4{slash}XTAL_32K_P-Pad8)*%
X130750000Y-109130000D03*
%TO.P,U1,9,GPIO16/U0CTS/ADC2_CH5/XTAL_32K_N*%
%TO.N,unconnected-(U1-GPIO16{slash}U0CTS{slash}ADC2_CH5{slash}XTAL_32K_N-Pad9)*%
X130750000Y-110400000D03*
%TO.P,U1,10,GPIO17/U1TXD/ADC2_CH6*%
%TO.N,GPIO17*%
X130750000Y-111670000D03*
%TO.P,U1,11,GPIO18/U1RXD/ADC2_CH7/CLK_OUT3*%
%TO.N,GPIO18*%
X130750000Y-112940000D03*
%TO.P,U1,12,GPIO8/TOUCH8/ADC1_CH7/SUBSPICS1*%
%TO.N,Net-(SN1-D3)*%
X130750000Y-114210000D03*
%TO.P,U1,13,GPIO19/U1RTS/ADC2_CH8/CLK_OUT2/USB_D-*%
%TO.N,unconnected-(U1-GPIO19{slash}U1RTS{slash}ADC2_CH8{slash}CLK_OUT2{slash}USB_D--Pad13)*%
X130750000Y-115480000D03*
%TO.P,U1,14,GPIO20/U1CTS/ADC2_CH9/CLK_OUT1/USB_D+*%
%TO.N,unconnected-(U1-GPIO20{slash}U1CTS{slash}ADC2_CH9{slash}CLK_OUT1{slash}USB_D+-Pad14)*%
X130750000Y-116750000D03*
D21*
%TO.P,U1,15,GPIO3/TOUCH3/ADC1_CH2*%
%TO.N,unconnected-(U1-GPIO3{slash}TOUCH3{slash}ADC1_CH2-Pad15)*%
X132515000Y-118000000D03*
%TO.P,U1,16,GPIO46*%
%TO.N,GPIO46*%
X133785000Y-118000000D03*
%TO.P,U1,17,GPIO9/TOUCH9/ADC1_CH8/FSPIHD/SUBSPIHD*%
%TO.N,Net-(SN1-D2)*%
X135055000Y-118000000D03*
%TO.P,U1,18,GPIO10/TOUCH10/ADC1_CH9/FSPICS0/FSPIIO4/SUBSPICS0*%
%TO.N,Net-(SN1-D1)*%
X136325000Y-118000000D03*
%TO.P,U1,19,GPIO11/TOUCH11/ADC2_CH0/FSPID/FSPIIO5/SUBSPID*%
%TO.N,unconnected-(U1-GPIO11{slash}TOUCH11{slash}ADC2_CH0{slash}FSPID{slash}FSPIIO5{slash}SUBSPID-Pad19)*%
X137595000Y-118000000D03*
%TO.P,U1,20,GPIO12/TOUCH12/ADC2_CH1/FSPICLK/FSPIIO6/SUBSPICLK*%
%TO.N,unconnected-(U1-GPIO12{slash}TOUCH12{slash}ADC2_CH1{slash}FSPICLK{slash}FSPIIO6{slash}SUBSPICLK-Pad20)*%
X138865000Y-118000000D03*
%TO.P,U1,21,GPIO13/TOUCH13/ADC2_CH2/FSPIQ/FSPIIO7/SUBSPIQ*%
%TO.N,unconnected-(U1-GPIO13{slash}TOUCH13{slash}ADC2_CH2{slash}FSPIQ{slash}FSPIIO7{slash}SUBSPIQ-Pad21)*%
X140135000Y-118000000D03*
%TO.P,U1,22,GPIO14/TOUCH14/ADC2_CH3/FSPIWP/FSPIDQS/SUBSPIWP*%
%TO.N,unconnected-(U1-GPIO14{slash}TOUCH14{slash}ADC2_CH3{slash}FSPIWP{slash}FSPIDQS{slash}SUBSPIWP-Pad22)*%
X141405000Y-118000000D03*
%TO.P,U1,23,GPIO21*%
%TO.N,unconnected-(U1-GPIO21-Pad23)*%
X142675000Y-118000000D03*
%TO.P,U1,24,GPIO47/SPICLK_P/SUBSPICLK_P_DIFF*%
%TO.N,unconnected-(U1-GPIO47{slash}SPICLK_P{slash}SUBSPICLK_P_DIFF-Pad24)*%
X143945000Y-118000000D03*
%TO.P,U1,25,GPIO48/SPICLK_N/SUBSPICLK_N_DIFF*%
%TO.N,unconnected-(U1-GPIO48{slash}SPICLK_N{slash}SUBSPICLK_N_DIFF-Pad25)*%
X145215000Y-118000000D03*
%TO.P,U1,26,GPIO45*%
%TO.N,GPIO45*%
X146485000Y-118000000D03*
D20*
%TO.P,U1,27,GPIO0/BOOT*%
%TO.N,Net-(U1-GPIO0{slash}BOOT)*%
X148250000Y-116750000D03*
%TO.P,U1,28,SPIIO6/GPIO35/FSPID/SUBSPID*%
%TO.N,unconnected-(U1-SPIIO6{slash}GPIO35{slash}FSPID{slash}SUBSPID-Pad28)*%
X148250000Y-115480000D03*
%TO.P,U1,29,SPIIO7/GPIO36/FSPICLK/SUBSPICLK*%
%TO.N,unconnected-(U1-SPIIO7{slash}GPIO36{slash}FSPICLK{slash}SUBSPICLK-Pad29)*%
X148250000Y-114210000D03*
%TO.P,U1,30,SPIDQS/GPIO37/FSPIQ/SUBSPIQ*%
%TO.N,unconnected-(U1-SPIDQS{slash}GPIO37{slash}FSPIQ{slash}SUBSPIQ-Pad30)*%
X148250000Y-112940000D03*
%TO.P,U1,31,GPIO38/FSPIWP/SUBSPIWP*%
%TO.N,unconnected-(U1-GPIO38{slash}FSPIWP{slash}SUBSPIWP-Pad31)*%
X148250000Y-111670000D03*
%TO.P,U1,32,MTCK/GPIO39/CLK_OUT3/SUBSPICS1*%
%TO.N,unconnected-(U1-MTCK{slash}GPIO39{slash}CLK_OUT3{slash}SUBSPICS1-Pad32)*%
X148250000Y-110400000D03*
%TO.P,U1,33,MTDO/GPIO40/CLK_OUT2*%
%TO.N,Net-(U1-MTDO{slash}GPIO40{slash}CLK_OUT2)*%
X148250000Y-109130000D03*
%TO.P,U1,34,MTDI/GPIO41/CLK_OUT1*%
%TO.N,unconnected-(U1-MTDI{slash}GPIO41{slash}CLK_OUT1-Pad34)*%
X148250000Y-107860000D03*
%TO.P,U1,35,MTMS/GPIO42*%
%TO.N,Net-(U1-MTMS{slash}GPIO42)*%
X148250000Y-106590000D03*
%TO.P,U1,36,U0RXD/GPIO44/CLK_OUT2*%
%TO.N,RXD0*%
X148250000Y-105320000D03*
%TO.P,U1,37,U0TXD/GPIO43/CLK_OUT1*%
%TO.N,TXD0*%
X148250000Y-104050000D03*
%TO.P,U1,38,GPIO2/TOUCH2/ADC1_CH1*%
%TO.N,Net-(SN1-D8)*%
X148250000Y-102780000D03*
%TO.P,U1,39,GPIO1/TOUCH1/ADC1_CH0*%
%TO.N,unconnected-(U1-GPIO1{slash}TOUCH1{slash}ADC1_CH0-Pad39)*%
X148250000Y-101510000D03*
%TO.P,U1,40,GND*%
%TO.N,GND*%
X148250000Y-100240000D03*
D22*
%TO.P,U1,41,GND*%
X136600000Y-106560000D03*
X136600000Y-107960000D03*
X136600000Y-109360000D03*
X136600000Y-109360000D03*
X138000000Y-106560000D03*
X138000000Y-106560000D03*
X138000000Y-107960000D03*
X138000000Y-109360000D03*
X139400000Y-106560000D03*
X139400000Y-107960000D03*
X139400000Y-109360000D03*
%TD*%
D12*
%TO.P,C4,1*%
%TO.N,VCC_3.3V*%
X136750000Y-77170000D03*
%TO.P,C4,2*%
%TO.N,GND*%
X136750000Y-82170000D03*
%TD*%
%TO.P,C6,1*%
%TO.N,ESP_3.3V*%
X120900000Y-100860000D03*
%TO.P,C6,2*%
%TO.N,GND*%
X120900000Y-95860000D03*
%TD*%
D23*
%TO.N,GPIO18*%
X128000000Y-111920000D03*
%TO.N,TXD0*%
X151750000Y-104050000D03*
%TO.N,GPIO45*%
X145750000Y-119670000D03*
%TO.N,GPIO17*%
X128125000Y-110795000D03*
%TO.N,GPIO46*%
X133785000Y-119635000D03*
%TO.N,RXD0*%
X150100000Y-105320000D03*
%TD*%
D24*
%TO.N,BT_7.4V*%
X138750000Y-83670000D02*
X132107500Y-83670000D01*
D25*
X122877500Y-72297500D02*
X122877500Y-71781250D01*
D24*
X138750000Y-79170000D02*
X138750000Y-83670000D01*
X127750000Y-80170000D02*
X127750000Y-76170000D01*
X144250000Y-78670000D02*
X145750000Y-77170000D01*
D25*
X141250000Y-78170000D02*
X141050000Y-77970000D01*
D24*
X123877500Y-72297500D02*
X123393750Y-72297500D01*
D25*
X141250000Y-73120000D02*
X141550000Y-72820000D01*
D24*
X141250000Y-78670000D02*
X144250000Y-78670000D01*
X130291500Y-82711500D02*
X127750000Y-80170000D01*
X127750000Y-76170000D02*
X123877500Y-72297500D01*
X147750000Y-72945000D02*
X147750000Y-75170000D01*
X141250000Y-78670000D02*
X141250000Y-73120000D01*
X147750000Y-75170000D02*
X145750000Y-77170000D01*
X139250000Y-78670000D02*
X138750000Y-79170000D01*
X141250000Y-78670000D02*
X139250000Y-78670000D01*
X132107500Y-83670000D02*
X131149000Y-82711500D01*
X131149000Y-82711500D02*
X130291500Y-82711500D01*
X123393750Y-72297500D02*
X122877500Y-71781250D01*
D25*
X141250000Y-78670000D02*
X141250000Y-78170000D01*
D24*
%TO.N,GND*%
X149250000Y-99240000D02*
X149250000Y-92170000D01*
X128370000Y-97860000D02*
X130750000Y-100240000D01*
X125400000Y-97860000D02*
X122900000Y-97860000D01*
X139400000Y-106560000D02*
X139400000Y-109360000D01*
D25*
X104951000Y-97969000D02*
X110549000Y-97969000D01*
X110549000Y-97969000D02*
X111750000Y-99170000D01*
D24*
X127750000Y-91170000D02*
X147952000Y-91170000D01*
X149250000Y-91170000D02*
X148750000Y-90670000D01*
D25*
X98750000Y-85670000D02*
X98750000Y-76830000D01*
D24*
X136950000Y-72820000D02*
X126456250Y-72820000D01*
X148750000Y-90670000D02*
X148750000Y-82900000D01*
X149250000Y-92170000D02*
X149250000Y-91170000D01*
X120900000Y-95860000D02*
X116940000Y-95860000D01*
X130750000Y-100240000D02*
X133320000Y-100240000D01*
X144250000Y-80670000D02*
X145750000Y-82170000D01*
X137750000Y-70405000D02*
X147750000Y-70405000D01*
X148250000Y-100240000D02*
X149250000Y-99240000D01*
X127750000Y-94378630D02*
X127750000Y-91170000D01*
X122900000Y-97860000D02*
X120900000Y-95860000D01*
D25*
X108250000Y-87170000D02*
X100250000Y-87170000D01*
X110500000Y-120420000D02*
X110500000Y-131920000D01*
X100000000Y-102920000D02*
X93500000Y-102920000D01*
D24*
X138000000Y-106560000D02*
X139400000Y-106560000D01*
X139400000Y-107960000D02*
X138000000Y-107960000D01*
X134600000Y-72820000D02*
X129500000Y-77920000D01*
X136600000Y-109360000D02*
X136600000Y-106560000D01*
D25*
X98750000Y-76830000D02*
X101090000Y-76830000D01*
D24*
X133320000Y-100240000D02*
X136600000Y-103520000D01*
D25*
X100250000Y-87170000D02*
X98750000Y-85670000D01*
D24*
X133250000Y-80670000D02*
X134750000Y-82170000D01*
D25*
X66750000Y-105370000D02*
X73748700Y-105370000D01*
D24*
X130750000Y-80670000D02*
X132250000Y-80670000D01*
X137750000Y-72020000D02*
X137750000Y-70405000D01*
X136600000Y-103520000D02*
X136600000Y-106560000D01*
X125400000Y-97860000D02*
X125400000Y-96728630D01*
X125400000Y-96728630D02*
X127750000Y-94378630D01*
X136600000Y-106560000D02*
X138000000Y-106560000D01*
X136950000Y-72820000D02*
X137750000Y-72020000D01*
D25*
X104247000Y-114167000D02*
X110500000Y-120420000D01*
D24*
X138000000Y-107960000D02*
X136600000Y-107960000D01*
X125400000Y-97860000D02*
X128370000Y-97860000D01*
X134750000Y-82170000D02*
X136750000Y-82170000D01*
D25*
X116750000Y-95670000D02*
X108250000Y-87170000D01*
X136800000Y-72670000D02*
X136950000Y-72820000D01*
D24*
X138000000Y-109360000D02*
X136600000Y-109360000D01*
X138000000Y-106560000D02*
X138000000Y-109360000D01*
D25*
X116940000Y-95860000D02*
X116750000Y-95670000D01*
D24*
X129500000Y-77920000D02*
X129500000Y-79420000D01*
X139400000Y-109360000D02*
X138000000Y-109360000D01*
X148020000Y-82170000D02*
X145750000Y-82170000D01*
X148101000Y-91319000D02*
X148750000Y-90670000D01*
D25*
X73748700Y-105370000D02*
X82545700Y-114167000D01*
X82545700Y-114167000D02*
X104247000Y-114167000D01*
D24*
X148750000Y-82900000D02*
X148020000Y-82170000D01*
D25*
X141250000Y-80670000D02*
X140750000Y-80670000D01*
X101090000Y-76830000D02*
X108678750Y-69241250D01*
D24*
X126456250Y-72820000D02*
X122877500Y-69241250D01*
D25*
X100000000Y-102920000D02*
X104951000Y-97969000D01*
D24*
X141250000Y-80670000D02*
X144250000Y-80670000D01*
X129500000Y-79420000D02*
X130750000Y-80670000D01*
D25*
X108678750Y-69241250D02*
X122877500Y-69241250D01*
D24*
X132250000Y-80670000D02*
X133250000Y-80670000D01*
X147952000Y-91170000D02*
X148101000Y-91319000D01*
D25*
X136950000Y-72820000D02*
X134600000Y-72820000D01*
D26*
%TO.N,VCC_3.3V*%
X139250000Y-65845000D02*
X126575000Y-53170000D01*
X136750000Y-76670000D02*
X139250000Y-74170000D01*
X126575000Y-53170000D02*
X110830000Y-53170000D01*
X139250000Y-74170000D02*
X139250000Y-72820000D01*
X132250000Y-78670000D02*
X135250000Y-78670000D01*
D25*
X136750000Y-77170000D02*
X136750000Y-76670000D01*
D26*
X135250000Y-78670000D02*
X136750000Y-77170000D01*
D25*
X139250000Y-66520000D02*
X139250000Y-65845000D01*
D26*
%TO.N,ESP_3.3V*%
X127050000Y-101510000D02*
X125400000Y-99860000D01*
X128400000Y-101510000D02*
X127050000Y-101510000D01*
X130750000Y-101510000D02*
X128400000Y-101510000D01*
X121900000Y-99860000D02*
X120900000Y-100860000D01*
X125400000Y-99860000D02*
X121900000Y-99860000D01*
D25*
%TO.N,Net-(D1-A)*%
X109210000Y-104790000D02*
X113590000Y-109170000D01*
X109210000Y-99170000D02*
X109210000Y-104790000D01*
%TO.N,Net-(D4-A)*%
X121170000Y-134515000D02*
X121015000Y-134670000D01*
X121170000Y-128170000D02*
X121170000Y-134515000D01*
%TO.N,Net-(U1-MTMS{slash}GPIO42)*%
X150250000Y-117670000D02*
X150250000Y-106670000D01*
X131330000Y-128170000D02*
X139750000Y-128170000D01*
X148330000Y-106670000D02*
X148250000Y-106590000D01*
X148250000Y-106590000D02*
X148670000Y-106590000D01*
X150250000Y-106670000D02*
X148330000Y-106670000D01*
X139750000Y-128170000D02*
X150250000Y-117670000D01*
%TO.N,Net-(U1-MTDO{slash}GPIO40{slash}CLK_OUT2)*%
X149750000Y-109670000D02*
X149210000Y-109130000D01*
X149210000Y-109130000D02*
X148250000Y-109130000D01*
X120250000Y-126170000D02*
X141182900Y-126170000D01*
X141182900Y-126170000D02*
X149750000Y-117602900D01*
X110500000Y-135920000D02*
X120250000Y-126170000D01*
X110500000Y-136420000D02*
X110500000Y-135920000D01*
X149750000Y-117602900D02*
X149750000Y-109670000D01*
X110500000Y-136420000D02*
X104000000Y-136420000D01*
%TO.N,GPIO18*%
X129020000Y-112940000D02*
X130750000Y-112940000D01*
X128000000Y-111920000D02*
X129020000Y-112940000D01*
%TO.N,TXD0*%
X148250000Y-104050000D02*
X151750000Y-104050000D01*
%TO.N,GPIO45*%
X146485000Y-118000000D02*
X146485000Y-118935000D01*
X146485000Y-118935000D02*
X145750000Y-119670000D01*
%TO.N,GPIO17*%
X129000000Y-111670000D02*
X130750000Y-111670000D01*
X128125000Y-110795000D02*
X129000000Y-111670000D01*
%TO.N,GPIO46*%
X133785000Y-118000000D02*
X133785000Y-119635000D01*
%TO.N,RXD0*%
X148250000Y-105320000D02*
X150100000Y-105320000D01*
D26*
%TO.N,Net-(J1-VCC)*%
X101170000Y-71750000D02*
X98750000Y-71750000D01*
X102750000Y-56170000D02*
X102750000Y-70170000D01*
X105750000Y-53170000D02*
X102750000Y-56170000D01*
X102750000Y-70170000D02*
X101170000Y-71750000D01*
D25*
%TO.N,Net-(SN1-D5)*%
X83376200Y-112162000D02*
X69651000Y-98436800D01*
X127571000Y-106590000D02*
X127202000Y-106959000D01*
X127202000Y-109192200D02*
X124232200Y-112162000D01*
X127202000Y-106959000D02*
X127202000Y-109192200D01*
X116750000Y-112162000D02*
X116732200Y-112162000D01*
X69651000Y-98436800D02*
X69651000Y-90571000D01*
X116750000Y-112162000D02*
X83376200Y-112162000D01*
X130750000Y-106590000D02*
X127571000Y-106590000D01*
X69651000Y-90571000D02*
X69210000Y-90130000D01*
X124232200Y-112162000D02*
X116750000Y-112162000D01*
X69210000Y-90130000D02*
X66750000Y-90130000D01*
%TO.N,Net-(SN1-D1)*%
X130575800Y-121670000D02*
X127301000Y-118395200D01*
X82711800Y-113766000D02*
X69235800Y-100290000D01*
X124232200Y-113766000D02*
X82711800Y-113766000D01*
X136325000Y-118950000D02*
X133605000Y-121670000D01*
X136325000Y-118950000D02*
X136325000Y-118860000D01*
X136325000Y-118950000D02*
X136325000Y-118000000D01*
X133605000Y-121670000D02*
X130575800Y-121670000D01*
X127301000Y-118395200D02*
X127301000Y-115462300D01*
X69235800Y-100290000D02*
X66750000Y-100290000D01*
X127301000Y-115462300D02*
X126807700Y-114969000D01*
X125435200Y-114969000D02*
X124232200Y-113766000D01*
X126807700Y-114969000D02*
X125435200Y-114969000D01*
%TO.N,Net-(SN1-D8)*%
X150750000Y-101230000D02*
X149200000Y-102780000D01*
X130250000Y-50670000D02*
X150750000Y-71170000D01*
X149200000Y-102780000D02*
X148250000Y-102780000D01*
X71410000Y-82510000D02*
X103250000Y-50670000D01*
X66750000Y-82510000D02*
X71410000Y-82510000D01*
X150750000Y-71170000D02*
X150750000Y-101230000D01*
X103250000Y-50670000D02*
X130250000Y-50670000D01*
%TO.N,Net-(SN1-D3)*%
X125767400Y-114167000D02*
X127139900Y-114167000D01*
X68849000Y-98769000D02*
X83044000Y-112964000D01*
X83044000Y-112964000D02*
X124564400Y-112964000D01*
X124564400Y-112964000D02*
X125767400Y-114167000D01*
X127182900Y-114210000D02*
X130750000Y-114210000D01*
X68290000Y-95210000D02*
X68849000Y-95769000D01*
X66750000Y-95210000D02*
X68290000Y-95210000D01*
X127139900Y-114167000D02*
X127182900Y-114210000D01*
X68849000Y-95769000D02*
X68849000Y-98769000D01*
%TO.N,Net-(SN1-D6)*%
X70052000Y-98270700D02*
X70052000Y-87972000D01*
X83542300Y-111761000D02*
X70052000Y-98270700D01*
X126801000Y-109026100D02*
X124066100Y-111761000D01*
X124066100Y-111761000D02*
X116341000Y-111761000D01*
X126801000Y-105959000D02*
X126801000Y-109026100D01*
X127440000Y-105320000D02*
X126801000Y-105959000D01*
X70052000Y-87972000D02*
X69670000Y-87590000D01*
X69670000Y-87590000D02*
X66750000Y-87590000D01*
X116341000Y-111761000D02*
X83542300Y-111761000D01*
X130750000Y-105320000D02*
X127440000Y-105320000D01*
X116341000Y-111761000D02*
X116301000Y-111761000D01*
%TO.N,Net-(SN1-D2)*%
X67830000Y-97750000D02*
X66750000Y-97750000D01*
X135055000Y-118000000D02*
X135055000Y-119652900D01*
X68448000Y-98368000D02*
X67830000Y-97750000D01*
X68448000Y-98935100D02*
X68448000Y-98368000D01*
X125601300Y-114568000D02*
X124398300Y-113365000D01*
X124398300Y-113365000D02*
X82877900Y-113365000D01*
X127702000Y-118229100D02*
X127702000Y-115296200D01*
X135055000Y-119652900D02*
X133438900Y-121269000D01*
X127702000Y-115296200D02*
X126973800Y-114568000D01*
X133438900Y-121269000D02*
X130741900Y-121269000D01*
X130741900Y-121269000D02*
X127702000Y-118229100D01*
X82877900Y-113365000D02*
X68448000Y-98935100D01*
X126973800Y-114568000D02*
X125601300Y-114568000D01*
%TO.N,Net-(SN1-D4)*%
X69250000Y-98602900D02*
X69250000Y-93170000D01*
X83210100Y-112563000D02*
X69250000Y-98602900D01*
X130750000Y-107860000D02*
X127603000Y-107860000D01*
X124398300Y-112563000D02*
X83210100Y-112563000D01*
X127603000Y-107860000D02*
X127603000Y-109358300D01*
X68750000Y-92670000D02*
X66750000Y-92670000D01*
X127603000Y-109358300D02*
X124398300Y-112563000D01*
X69250000Y-93170000D02*
X68750000Y-92670000D01*
%TO.N,Net-(SN1-D7)*%
X126400000Y-108860000D02*
X123900000Y-111360000D01*
X123900000Y-111360000D02*
X83708400Y-111360000D01*
X70453000Y-85873000D02*
X69630000Y-85050000D01*
X130750000Y-104050000D02*
X126710000Y-104050000D01*
X69630000Y-85050000D02*
X66750000Y-85050000D01*
X126400000Y-104360000D02*
X126400000Y-108860000D01*
X83708400Y-111360000D02*
X70453000Y-98104600D01*
X70453000Y-98104600D02*
X70453000Y-85873000D01*
X126710000Y-104050000D02*
X126400000Y-104360000D01*
%TO.N,Net-(U1-EN)*%
X130750000Y-102780000D02*
X118860000Y-102780000D01*
X107750000Y-91670000D02*
X100250000Y-91670000D01*
X118860000Y-102780000D02*
X116750000Y-100670000D01*
X116750000Y-100670000D02*
X107750000Y-91670000D01*
X113590000Y-105670000D02*
X113590000Y-103830000D01*
X113590000Y-103830000D02*
X116750000Y-100670000D01*
%TO.N,Net-(U1-GPIO0{slash}BOOT)*%
X142615800Y-124170000D02*
X148250000Y-118535800D01*
X148250000Y-118535800D02*
X148250000Y-116750000D01*
X131330000Y-124170000D02*
X142615800Y-124170000D01*
%TD*%
M02*
