%TF.GenerationSoftware,KiCad,Pcbnew,9.0.5*%
%TF.CreationDate,2025-11-26T15:00:46+01:00*%
%TF.ProjectId,planA,706c616e-412e-46b6-9963-61645f706362,rev?*%
%TF.SameCoordinates,Original*%
%TF.FileFunction,Legend,Top*%
%TF.FilePolarity,Positive*%
%FSLAX46Y46*%
G04 Gerber Fmt 4.6, Leading zero omitted, Abs format (unit mm)*
G04 Created by KiCad (PCBNEW 9.0.5) date 2025-11-26 15:00:46*
%MOMM*%
%LPD*%
G01*
G04 APERTURE LIST*
%ADD10C,0.150000*%
%ADD11C,0.120000*%
%ADD12C,0.100000*%
G04 APERTURE END LIST*
D10*
X94640476Y-76672438D02*
X94564286Y-76624819D01*
X94564286Y-76624819D02*
X94450000Y-76624819D01*
X94450000Y-76624819D02*
X94335714Y-76672438D01*
X94335714Y-76672438D02*
X94259524Y-76767676D01*
X94259524Y-76767676D02*
X94221429Y-76862914D01*
X94221429Y-76862914D02*
X94183333Y-77053390D01*
X94183333Y-77053390D02*
X94183333Y-77196247D01*
X94183333Y-77196247D02*
X94221429Y-77386723D01*
X94221429Y-77386723D02*
X94259524Y-77481961D01*
X94259524Y-77481961D02*
X94335714Y-77577200D01*
X94335714Y-77577200D02*
X94450000Y-77624819D01*
X94450000Y-77624819D02*
X94526191Y-77624819D01*
X94526191Y-77624819D02*
X94640476Y-77577200D01*
X94640476Y-77577200D02*
X94678572Y-77529580D01*
X94678572Y-77529580D02*
X94678572Y-77196247D01*
X94678572Y-77196247D02*
X94526191Y-77196247D01*
X95021429Y-77624819D02*
X95021429Y-76624819D01*
X95021429Y-76624819D02*
X95478572Y-77624819D01*
X95478572Y-77624819D02*
X95478572Y-76624819D01*
X95859524Y-77624819D02*
X95859524Y-76624819D01*
X95859524Y-76624819D02*
X96050000Y-76624819D01*
X96050000Y-76624819D02*
X96164286Y-76672438D01*
X96164286Y-76672438D02*
X96240476Y-76767676D01*
X96240476Y-76767676D02*
X96278571Y-76862914D01*
X96278571Y-76862914D02*
X96316667Y-77053390D01*
X96316667Y-77053390D02*
X96316667Y-77196247D01*
X96316667Y-77196247D02*
X96278571Y-77386723D01*
X96278571Y-77386723D02*
X96240476Y-77481961D01*
X96240476Y-77481961D02*
X96164286Y-77577200D01*
X96164286Y-77577200D02*
X96050000Y-77624819D01*
X96050000Y-77624819D02*
X95859524Y-77624819D01*
X137678570Y-138624819D02*
X137678570Y-137624819D01*
X137678570Y-137624819D02*
X138011903Y-138339104D01*
X138011903Y-138339104D02*
X138345236Y-137624819D01*
X138345236Y-137624819D02*
X138345236Y-138624819D01*
X138964284Y-138624819D02*
X138869046Y-138577200D01*
X138869046Y-138577200D02*
X138821427Y-138529580D01*
X138821427Y-138529580D02*
X138773808Y-138434342D01*
X138773808Y-138434342D02*
X138773808Y-138148628D01*
X138773808Y-138148628D02*
X138821427Y-138053390D01*
X138821427Y-138053390D02*
X138869046Y-138005771D01*
X138869046Y-138005771D02*
X138964284Y-137958152D01*
X138964284Y-137958152D02*
X139107141Y-137958152D01*
X139107141Y-137958152D02*
X139202379Y-138005771D01*
X139202379Y-138005771D02*
X139249998Y-138053390D01*
X139249998Y-138053390D02*
X139297617Y-138148628D01*
X139297617Y-138148628D02*
X139297617Y-138434342D01*
X139297617Y-138434342D02*
X139249998Y-138529580D01*
X139249998Y-138529580D02*
X139202379Y-138577200D01*
X139202379Y-138577200D02*
X139107141Y-138624819D01*
X139107141Y-138624819D02*
X138964284Y-138624819D01*
X139583332Y-137958152D02*
X139964284Y-137958152D01*
X139726189Y-137624819D02*
X139726189Y-138481961D01*
X139726189Y-138481961D02*
X139773808Y-138577200D01*
X139773808Y-138577200D02*
X139869046Y-138624819D01*
X139869046Y-138624819D02*
X139964284Y-138624819D01*
X140440475Y-138624819D02*
X140345237Y-138577200D01*
X140345237Y-138577200D02*
X140297618Y-138529580D01*
X140297618Y-138529580D02*
X140249999Y-138434342D01*
X140249999Y-138434342D02*
X140249999Y-138148628D01*
X140249999Y-138148628D02*
X140297618Y-138053390D01*
X140297618Y-138053390D02*
X140345237Y-138005771D01*
X140345237Y-138005771D02*
X140440475Y-137958152D01*
X140440475Y-137958152D02*
X140583332Y-137958152D01*
X140583332Y-137958152D02*
X140678570Y-138005771D01*
X140678570Y-138005771D02*
X140726189Y-138053390D01*
X140726189Y-138053390D02*
X140773808Y-138148628D01*
X140773808Y-138148628D02*
X140773808Y-138434342D01*
X140773808Y-138434342D02*
X140726189Y-138529580D01*
X140726189Y-138529580D02*
X140678570Y-138577200D01*
X140678570Y-138577200D02*
X140583332Y-138624819D01*
X140583332Y-138624819D02*
X140440475Y-138624819D01*
X141202380Y-138624819D02*
X141202380Y-137958152D01*
X141202380Y-138148628D02*
X141249999Y-138053390D01*
X141249999Y-138053390D02*
X141297618Y-138005771D01*
X141297618Y-138005771D02*
X141392856Y-137958152D01*
X141392856Y-137958152D02*
X141488094Y-137958152D01*
X142583333Y-138624819D02*
X142583333Y-137624819D01*
X143011904Y-138624819D02*
X143011904Y-138101009D01*
X143011904Y-138101009D02*
X142964285Y-138005771D01*
X142964285Y-138005771D02*
X142869047Y-137958152D01*
X142869047Y-137958152D02*
X142726190Y-137958152D01*
X142726190Y-137958152D02*
X142630952Y-138005771D01*
X142630952Y-138005771D02*
X142583333Y-138053390D01*
X143630952Y-138624819D02*
X143535714Y-138577200D01*
X143535714Y-138577200D02*
X143488095Y-138529580D01*
X143488095Y-138529580D02*
X143440476Y-138434342D01*
X143440476Y-138434342D02*
X143440476Y-138148628D01*
X143440476Y-138148628D02*
X143488095Y-138053390D01*
X143488095Y-138053390D02*
X143535714Y-138005771D01*
X143535714Y-138005771D02*
X143630952Y-137958152D01*
X143630952Y-137958152D02*
X143773809Y-137958152D01*
X143773809Y-137958152D02*
X143869047Y-138005771D01*
X143869047Y-138005771D02*
X143916666Y-138053390D01*
X143916666Y-138053390D02*
X143964285Y-138148628D01*
X143964285Y-138148628D02*
X143964285Y-138434342D01*
X143964285Y-138434342D02*
X143916666Y-138529580D01*
X143916666Y-138529580D02*
X143869047Y-138577200D01*
X143869047Y-138577200D02*
X143773809Y-138624819D01*
X143773809Y-138624819D02*
X143630952Y-138624819D01*
X144535714Y-138624819D02*
X144440476Y-138577200D01*
X144440476Y-138577200D02*
X144392857Y-138481961D01*
X144392857Y-138481961D02*
X144392857Y-137624819D01*
X145345238Y-138624819D02*
X145345238Y-137624819D01*
X145345238Y-138577200D02*
X145250000Y-138624819D01*
X145250000Y-138624819D02*
X145059524Y-138624819D01*
X145059524Y-138624819D02*
X144964286Y-138577200D01*
X144964286Y-138577200D02*
X144916667Y-138529580D01*
X144916667Y-138529580D02*
X144869048Y-138434342D01*
X144869048Y-138434342D02*
X144869048Y-138148628D01*
X144869048Y-138148628D02*
X144916667Y-138053390D01*
X144916667Y-138053390D02*
X144964286Y-138005771D01*
X144964286Y-138005771D02*
X145059524Y-137958152D01*
X145059524Y-137958152D02*
X145250000Y-137958152D01*
X145250000Y-137958152D02*
X145345238Y-138005771D01*
X146202381Y-138577200D02*
X146107143Y-138624819D01*
X146107143Y-138624819D02*
X145916667Y-138624819D01*
X145916667Y-138624819D02*
X145821429Y-138577200D01*
X145821429Y-138577200D02*
X145773810Y-138481961D01*
X145773810Y-138481961D02*
X145773810Y-138101009D01*
X145773810Y-138101009D02*
X145821429Y-138005771D01*
X145821429Y-138005771D02*
X145916667Y-137958152D01*
X145916667Y-137958152D02*
X146107143Y-137958152D01*
X146107143Y-137958152D02*
X146202381Y-138005771D01*
X146202381Y-138005771D02*
X146250000Y-138101009D01*
X146250000Y-138101009D02*
X146250000Y-138196247D01*
X146250000Y-138196247D02*
X145773810Y-138291485D01*
X146678572Y-138624819D02*
X146678572Y-137958152D01*
X146678572Y-138148628D02*
X146726191Y-138053390D01*
X146726191Y-138053390D02*
X146773810Y-138005771D01*
X146773810Y-138005771D02*
X146869048Y-137958152D01*
X146869048Y-137958152D02*
X146964286Y-137958152D01*
X131130953Y-90601009D02*
X131464286Y-90601009D01*
X131607143Y-91124819D02*
X131130953Y-91124819D01*
X131130953Y-91124819D02*
X131130953Y-90124819D01*
X131130953Y-90124819D02*
X131607143Y-90124819D01*
X131988096Y-91077200D02*
X132130953Y-91124819D01*
X132130953Y-91124819D02*
X132369048Y-91124819D01*
X132369048Y-91124819D02*
X132464286Y-91077200D01*
X132464286Y-91077200D02*
X132511905Y-91029580D01*
X132511905Y-91029580D02*
X132559524Y-90934342D01*
X132559524Y-90934342D02*
X132559524Y-90839104D01*
X132559524Y-90839104D02*
X132511905Y-90743866D01*
X132511905Y-90743866D02*
X132464286Y-90696247D01*
X132464286Y-90696247D02*
X132369048Y-90648628D01*
X132369048Y-90648628D02*
X132178572Y-90601009D01*
X132178572Y-90601009D02*
X132083334Y-90553390D01*
X132083334Y-90553390D02*
X132035715Y-90505771D01*
X132035715Y-90505771D02*
X131988096Y-90410533D01*
X131988096Y-90410533D02*
X131988096Y-90315295D01*
X131988096Y-90315295D02*
X132035715Y-90220057D01*
X132035715Y-90220057D02*
X132083334Y-90172438D01*
X132083334Y-90172438D02*
X132178572Y-90124819D01*
X132178572Y-90124819D02*
X132416667Y-90124819D01*
X132416667Y-90124819D02*
X132559524Y-90172438D01*
X132988096Y-91124819D02*
X132988096Y-90124819D01*
X132988096Y-90124819D02*
X133369048Y-90124819D01*
X133369048Y-90124819D02*
X133464286Y-90172438D01*
X133464286Y-90172438D02*
X133511905Y-90220057D01*
X133511905Y-90220057D02*
X133559524Y-90315295D01*
X133559524Y-90315295D02*
X133559524Y-90458152D01*
X133559524Y-90458152D02*
X133511905Y-90553390D01*
X133511905Y-90553390D02*
X133464286Y-90601009D01*
X133464286Y-90601009D02*
X133369048Y-90648628D01*
X133369048Y-90648628D02*
X132988096Y-90648628D01*
X133892858Y-90124819D02*
X134511905Y-90124819D01*
X134511905Y-90124819D02*
X134178572Y-90505771D01*
X134178572Y-90505771D02*
X134321429Y-90505771D01*
X134321429Y-90505771D02*
X134416667Y-90553390D01*
X134416667Y-90553390D02*
X134464286Y-90601009D01*
X134464286Y-90601009D02*
X134511905Y-90696247D01*
X134511905Y-90696247D02*
X134511905Y-90934342D01*
X134511905Y-90934342D02*
X134464286Y-91029580D01*
X134464286Y-91029580D02*
X134416667Y-91077200D01*
X134416667Y-91077200D02*
X134321429Y-91124819D01*
X134321429Y-91124819D02*
X134035715Y-91124819D01*
X134035715Y-91124819D02*
X133940477Y-91077200D01*
X133940477Y-91077200D02*
X133892858Y-91029580D01*
X134892858Y-90220057D02*
X134940477Y-90172438D01*
X134940477Y-90172438D02*
X135035715Y-90124819D01*
X135035715Y-90124819D02*
X135273810Y-90124819D01*
X135273810Y-90124819D02*
X135369048Y-90172438D01*
X135369048Y-90172438D02*
X135416667Y-90220057D01*
X135416667Y-90220057D02*
X135464286Y-90315295D01*
X135464286Y-90315295D02*
X135464286Y-90410533D01*
X135464286Y-90410533D02*
X135416667Y-90553390D01*
X135416667Y-90553390D02*
X134845239Y-91124819D01*
X134845239Y-91124819D02*
X135464286Y-91124819D01*
X135892858Y-90743866D02*
X136654763Y-90743866D01*
X137083334Y-91077200D02*
X137226191Y-91124819D01*
X137226191Y-91124819D02*
X137464286Y-91124819D01*
X137464286Y-91124819D02*
X137559524Y-91077200D01*
X137559524Y-91077200D02*
X137607143Y-91029580D01*
X137607143Y-91029580D02*
X137654762Y-90934342D01*
X137654762Y-90934342D02*
X137654762Y-90839104D01*
X137654762Y-90839104D02*
X137607143Y-90743866D01*
X137607143Y-90743866D02*
X137559524Y-90696247D01*
X137559524Y-90696247D02*
X137464286Y-90648628D01*
X137464286Y-90648628D02*
X137273810Y-90601009D01*
X137273810Y-90601009D02*
X137178572Y-90553390D01*
X137178572Y-90553390D02*
X137130953Y-90505771D01*
X137130953Y-90505771D02*
X137083334Y-90410533D01*
X137083334Y-90410533D02*
X137083334Y-90315295D01*
X137083334Y-90315295D02*
X137130953Y-90220057D01*
X137130953Y-90220057D02*
X137178572Y-90172438D01*
X137178572Y-90172438D02*
X137273810Y-90124819D01*
X137273810Y-90124819D02*
X137511905Y-90124819D01*
X137511905Y-90124819D02*
X137654762Y-90172438D01*
X137988096Y-90124819D02*
X138607143Y-90124819D01*
X138607143Y-90124819D02*
X138273810Y-90505771D01*
X138273810Y-90505771D02*
X138416667Y-90505771D01*
X138416667Y-90505771D02*
X138511905Y-90553390D01*
X138511905Y-90553390D02*
X138559524Y-90601009D01*
X138559524Y-90601009D02*
X138607143Y-90696247D01*
X138607143Y-90696247D02*
X138607143Y-90934342D01*
X138607143Y-90934342D02*
X138559524Y-91029580D01*
X138559524Y-91029580D02*
X138511905Y-91077200D01*
X138511905Y-91077200D02*
X138416667Y-91124819D01*
X138416667Y-91124819D02*
X138130953Y-91124819D01*
X138130953Y-91124819D02*
X138035715Y-91077200D01*
X138035715Y-91077200D02*
X137988096Y-91029580D01*
X139035715Y-90743866D02*
X139797620Y-90743866D01*
X140178572Y-90124819D02*
X140416667Y-91124819D01*
X140416667Y-91124819D02*
X140607143Y-90410533D01*
X140607143Y-90410533D02*
X140797619Y-91124819D01*
X140797619Y-91124819D02*
X141035715Y-90124819D01*
X141988095Y-91124819D02*
X141654762Y-90648628D01*
X141416667Y-91124819D02*
X141416667Y-90124819D01*
X141416667Y-90124819D02*
X141797619Y-90124819D01*
X141797619Y-90124819D02*
X141892857Y-90172438D01*
X141892857Y-90172438D02*
X141940476Y-90220057D01*
X141940476Y-90220057D02*
X141988095Y-90315295D01*
X141988095Y-90315295D02*
X141988095Y-90458152D01*
X141988095Y-90458152D02*
X141940476Y-90553390D01*
X141940476Y-90553390D02*
X141892857Y-90601009D01*
X141892857Y-90601009D02*
X141797619Y-90648628D01*
X141797619Y-90648628D02*
X141416667Y-90648628D01*
X142607143Y-90124819D02*
X142797619Y-90124819D01*
X142797619Y-90124819D02*
X142892857Y-90172438D01*
X142892857Y-90172438D02*
X142988095Y-90267676D01*
X142988095Y-90267676D02*
X143035714Y-90458152D01*
X143035714Y-90458152D02*
X143035714Y-90791485D01*
X143035714Y-90791485D02*
X142988095Y-90981961D01*
X142988095Y-90981961D02*
X142892857Y-91077200D01*
X142892857Y-91077200D02*
X142797619Y-91124819D01*
X142797619Y-91124819D02*
X142607143Y-91124819D01*
X142607143Y-91124819D02*
X142511905Y-91077200D01*
X142511905Y-91077200D02*
X142416667Y-90981961D01*
X142416667Y-90981961D02*
X142369048Y-90791485D01*
X142369048Y-90791485D02*
X142369048Y-90458152D01*
X142369048Y-90458152D02*
X142416667Y-90267676D01*
X142416667Y-90267676D02*
X142511905Y-90172438D01*
X142511905Y-90172438D02*
X142607143Y-90124819D01*
X143654762Y-90124819D02*
X143845238Y-90124819D01*
X143845238Y-90124819D02*
X143940476Y-90172438D01*
X143940476Y-90172438D02*
X144035714Y-90267676D01*
X144035714Y-90267676D02*
X144083333Y-90458152D01*
X144083333Y-90458152D02*
X144083333Y-90791485D01*
X144083333Y-90791485D02*
X144035714Y-90981961D01*
X144035714Y-90981961D02*
X143940476Y-91077200D01*
X143940476Y-91077200D02*
X143845238Y-91124819D01*
X143845238Y-91124819D02*
X143654762Y-91124819D01*
X143654762Y-91124819D02*
X143559524Y-91077200D01*
X143559524Y-91077200D02*
X143464286Y-90981961D01*
X143464286Y-90981961D02*
X143416667Y-90791485D01*
X143416667Y-90791485D02*
X143416667Y-90458152D01*
X143416667Y-90458152D02*
X143464286Y-90267676D01*
X143464286Y-90267676D02*
X143559524Y-90172438D01*
X143559524Y-90172438D02*
X143654762Y-90124819D01*
X144511905Y-91124819D02*
X144511905Y-90124819D01*
X144511905Y-90124819D02*
X144845238Y-90839104D01*
X144845238Y-90839104D02*
X145178571Y-90124819D01*
X145178571Y-90124819D02*
X145178571Y-91124819D01*
X145654762Y-90743866D02*
X146416667Y-90743866D01*
X147416666Y-91124819D02*
X146845238Y-91124819D01*
X147130952Y-91124819D02*
X147130952Y-90124819D01*
X147130952Y-90124819D02*
X147035714Y-90267676D01*
X147035714Y-90267676D02*
X146940476Y-90362914D01*
X146940476Y-90362914D02*
X146845238Y-90410533D01*
X95173810Y-69624819D02*
X94907143Y-69148628D01*
X94716667Y-69624819D02*
X94716667Y-68624819D01*
X94716667Y-68624819D02*
X95021429Y-68624819D01*
X95021429Y-68624819D02*
X95097619Y-68672438D01*
X95097619Y-68672438D02*
X95135714Y-68720057D01*
X95135714Y-68720057D02*
X95173810Y-68815295D01*
X95173810Y-68815295D02*
X95173810Y-68958152D01*
X95173810Y-68958152D02*
X95135714Y-69053390D01*
X95135714Y-69053390D02*
X95097619Y-69101009D01*
X95097619Y-69101009D02*
X95021429Y-69148628D01*
X95021429Y-69148628D02*
X94716667Y-69148628D01*
X95440476Y-69624819D02*
X95859524Y-68958152D01*
X95440476Y-68958152D02*
X95859524Y-69624819D01*
X94069047Y-71124819D02*
X94564285Y-71124819D01*
X94564285Y-71124819D02*
X94297619Y-71505771D01*
X94297619Y-71505771D02*
X94411904Y-71505771D01*
X94411904Y-71505771D02*
X94488095Y-71553390D01*
X94488095Y-71553390D02*
X94526190Y-71601009D01*
X94526190Y-71601009D02*
X94564285Y-71696247D01*
X94564285Y-71696247D02*
X94564285Y-71934342D01*
X94564285Y-71934342D02*
X94526190Y-72029580D01*
X94526190Y-72029580D02*
X94488095Y-72077200D01*
X94488095Y-72077200D02*
X94411904Y-72124819D01*
X94411904Y-72124819D02*
X94183333Y-72124819D01*
X94183333Y-72124819D02*
X94107142Y-72077200D01*
X94107142Y-72077200D02*
X94069047Y-72029580D01*
X94907143Y-72029580D02*
X94945238Y-72077200D01*
X94945238Y-72077200D02*
X94907143Y-72124819D01*
X94907143Y-72124819D02*
X94869047Y-72077200D01*
X94869047Y-72077200D02*
X94907143Y-72029580D01*
X94907143Y-72029580D02*
X94907143Y-72124819D01*
X95211904Y-71124819D02*
X95707142Y-71124819D01*
X95707142Y-71124819D02*
X95440476Y-71505771D01*
X95440476Y-71505771D02*
X95554761Y-71505771D01*
X95554761Y-71505771D02*
X95630952Y-71553390D01*
X95630952Y-71553390D02*
X95669047Y-71601009D01*
X95669047Y-71601009D02*
X95707142Y-71696247D01*
X95707142Y-71696247D02*
X95707142Y-71934342D01*
X95707142Y-71934342D02*
X95669047Y-72029580D01*
X95669047Y-72029580D02*
X95630952Y-72077200D01*
X95630952Y-72077200D02*
X95554761Y-72124819D01*
X95554761Y-72124819D02*
X95326190Y-72124819D01*
X95326190Y-72124819D02*
X95249999Y-72077200D01*
X95249999Y-72077200D02*
X95211904Y-72029580D01*
X95935714Y-71124819D02*
X96202381Y-72124819D01*
X96202381Y-72124819D02*
X96469047Y-71124819D01*
X94697619Y-66124819D02*
X95154762Y-66124819D01*
X94926190Y-67124819D02*
X94926190Y-66124819D01*
X95345238Y-67124819D02*
X95764286Y-66458152D01*
X95345238Y-66458152D02*
X95764286Y-67124819D01*
X146821429Y-46715180D02*
X146821429Y-47715180D01*
X146821429Y-47715180D02*
X146488096Y-47000895D01*
X146488096Y-47000895D02*
X146154763Y-47715180D01*
X146154763Y-47715180D02*
X146154763Y-46715180D01*
X145535715Y-46715180D02*
X145630953Y-46762800D01*
X145630953Y-46762800D02*
X145678572Y-46810419D01*
X145678572Y-46810419D02*
X145726191Y-46905657D01*
X145726191Y-46905657D02*
X145726191Y-47191371D01*
X145726191Y-47191371D02*
X145678572Y-47286609D01*
X145678572Y-47286609D02*
X145630953Y-47334228D01*
X145630953Y-47334228D02*
X145535715Y-47381847D01*
X145535715Y-47381847D02*
X145392858Y-47381847D01*
X145392858Y-47381847D02*
X145297620Y-47334228D01*
X145297620Y-47334228D02*
X145250001Y-47286609D01*
X145250001Y-47286609D02*
X145202382Y-47191371D01*
X145202382Y-47191371D02*
X145202382Y-46905657D01*
X145202382Y-46905657D02*
X145250001Y-46810419D01*
X145250001Y-46810419D02*
X145297620Y-46762800D01*
X145297620Y-46762800D02*
X145392858Y-46715180D01*
X145392858Y-46715180D02*
X145535715Y-46715180D01*
X144916667Y-47381847D02*
X144535715Y-47381847D01*
X144773810Y-47715180D02*
X144773810Y-46858038D01*
X144773810Y-46858038D02*
X144726191Y-46762800D01*
X144726191Y-46762800D02*
X144630953Y-46715180D01*
X144630953Y-46715180D02*
X144535715Y-46715180D01*
X144059524Y-46715180D02*
X144154762Y-46762800D01*
X144154762Y-46762800D02*
X144202381Y-46810419D01*
X144202381Y-46810419D02*
X144250000Y-46905657D01*
X144250000Y-46905657D02*
X144250000Y-47191371D01*
X144250000Y-47191371D02*
X144202381Y-47286609D01*
X144202381Y-47286609D02*
X144154762Y-47334228D01*
X144154762Y-47334228D02*
X144059524Y-47381847D01*
X144059524Y-47381847D02*
X143916667Y-47381847D01*
X143916667Y-47381847D02*
X143821429Y-47334228D01*
X143821429Y-47334228D02*
X143773810Y-47286609D01*
X143773810Y-47286609D02*
X143726191Y-47191371D01*
X143726191Y-47191371D02*
X143726191Y-46905657D01*
X143726191Y-46905657D02*
X143773810Y-46810419D01*
X143773810Y-46810419D02*
X143821429Y-46762800D01*
X143821429Y-46762800D02*
X143916667Y-46715180D01*
X143916667Y-46715180D02*
X144059524Y-46715180D01*
X143297619Y-46715180D02*
X143297619Y-47381847D01*
X143297619Y-47191371D02*
X143250000Y-47286609D01*
X143250000Y-47286609D02*
X143202381Y-47334228D01*
X143202381Y-47334228D02*
X143107143Y-47381847D01*
X143107143Y-47381847D02*
X143011905Y-47381847D01*
X141916666Y-46715180D02*
X141916666Y-47715180D01*
X141488095Y-46715180D02*
X141488095Y-47238990D01*
X141488095Y-47238990D02*
X141535714Y-47334228D01*
X141535714Y-47334228D02*
X141630952Y-47381847D01*
X141630952Y-47381847D02*
X141773809Y-47381847D01*
X141773809Y-47381847D02*
X141869047Y-47334228D01*
X141869047Y-47334228D02*
X141916666Y-47286609D01*
X140869047Y-46715180D02*
X140964285Y-46762800D01*
X140964285Y-46762800D02*
X141011904Y-46810419D01*
X141011904Y-46810419D02*
X141059523Y-46905657D01*
X141059523Y-46905657D02*
X141059523Y-47191371D01*
X141059523Y-47191371D02*
X141011904Y-47286609D01*
X141011904Y-47286609D02*
X140964285Y-47334228D01*
X140964285Y-47334228D02*
X140869047Y-47381847D01*
X140869047Y-47381847D02*
X140726190Y-47381847D01*
X140726190Y-47381847D02*
X140630952Y-47334228D01*
X140630952Y-47334228D02*
X140583333Y-47286609D01*
X140583333Y-47286609D02*
X140535714Y-47191371D01*
X140535714Y-47191371D02*
X140535714Y-46905657D01*
X140535714Y-46905657D02*
X140583333Y-46810419D01*
X140583333Y-46810419D02*
X140630952Y-46762800D01*
X140630952Y-46762800D02*
X140726190Y-46715180D01*
X140726190Y-46715180D02*
X140869047Y-46715180D01*
X139964285Y-46715180D02*
X140059523Y-46762800D01*
X140059523Y-46762800D02*
X140107142Y-46858038D01*
X140107142Y-46858038D02*
X140107142Y-47715180D01*
X139154761Y-46715180D02*
X139154761Y-47715180D01*
X139154761Y-46762800D02*
X139249999Y-46715180D01*
X139249999Y-46715180D02*
X139440475Y-46715180D01*
X139440475Y-46715180D02*
X139535713Y-46762800D01*
X139535713Y-46762800D02*
X139583332Y-46810419D01*
X139583332Y-46810419D02*
X139630951Y-46905657D01*
X139630951Y-46905657D02*
X139630951Y-47191371D01*
X139630951Y-47191371D02*
X139583332Y-47286609D01*
X139583332Y-47286609D02*
X139535713Y-47334228D01*
X139535713Y-47334228D02*
X139440475Y-47381847D01*
X139440475Y-47381847D02*
X139249999Y-47381847D01*
X139249999Y-47381847D02*
X139154761Y-47334228D01*
X138297618Y-46762800D02*
X138392856Y-46715180D01*
X138392856Y-46715180D02*
X138583332Y-46715180D01*
X138583332Y-46715180D02*
X138678570Y-46762800D01*
X138678570Y-46762800D02*
X138726189Y-46858038D01*
X138726189Y-46858038D02*
X138726189Y-47238990D01*
X138726189Y-47238990D02*
X138678570Y-47334228D01*
X138678570Y-47334228D02*
X138583332Y-47381847D01*
X138583332Y-47381847D02*
X138392856Y-47381847D01*
X138392856Y-47381847D02*
X138297618Y-47334228D01*
X138297618Y-47334228D02*
X138249999Y-47238990D01*
X138249999Y-47238990D02*
X138249999Y-47143752D01*
X138249999Y-47143752D02*
X138726189Y-47048514D01*
X137821427Y-46715180D02*
X137821427Y-47381847D01*
X137821427Y-47191371D02*
X137773808Y-47286609D01*
X137773808Y-47286609D02*
X137726189Y-47334228D01*
X137726189Y-47334228D02*
X137630951Y-47381847D01*
X137630951Y-47381847D02*
X137535713Y-47381847D01*
X132988095Y-69124819D02*
X132988095Y-69934342D01*
X132988095Y-69934342D02*
X133035714Y-70029580D01*
X133035714Y-70029580D02*
X133083333Y-70077200D01*
X133083333Y-70077200D02*
X133178571Y-70124819D01*
X133178571Y-70124819D02*
X133369047Y-70124819D01*
X133369047Y-70124819D02*
X133464285Y-70077200D01*
X133464285Y-70077200D02*
X133511904Y-70029580D01*
X133511904Y-70029580D02*
X133559523Y-69934342D01*
X133559523Y-69934342D02*
X133559523Y-69124819D01*
X133988095Y-69220057D02*
X134035714Y-69172438D01*
X134035714Y-69172438D02*
X134130952Y-69124819D01*
X134130952Y-69124819D02*
X134369047Y-69124819D01*
X134369047Y-69124819D02*
X134464285Y-69172438D01*
X134464285Y-69172438D02*
X134511904Y-69220057D01*
X134511904Y-69220057D02*
X134559523Y-69315295D01*
X134559523Y-69315295D02*
X134559523Y-69410533D01*
X134559523Y-69410533D02*
X134511904Y-69553390D01*
X134511904Y-69553390D02*
X133940476Y-70124819D01*
X133940476Y-70124819D02*
X134559523Y-70124819D01*
X145583333Y-85029580D02*
X145535714Y-85077200D01*
X145535714Y-85077200D02*
X145392857Y-85124819D01*
X145392857Y-85124819D02*
X145297619Y-85124819D01*
X145297619Y-85124819D02*
X145154762Y-85077200D01*
X145154762Y-85077200D02*
X145059524Y-84981961D01*
X145059524Y-84981961D02*
X145011905Y-84886723D01*
X145011905Y-84886723D02*
X144964286Y-84696247D01*
X144964286Y-84696247D02*
X144964286Y-84553390D01*
X144964286Y-84553390D02*
X145011905Y-84362914D01*
X145011905Y-84362914D02*
X145059524Y-84267676D01*
X145059524Y-84267676D02*
X145154762Y-84172438D01*
X145154762Y-84172438D02*
X145297619Y-84124819D01*
X145297619Y-84124819D02*
X145392857Y-84124819D01*
X145392857Y-84124819D02*
X145535714Y-84172438D01*
X145535714Y-84172438D02*
X145583333Y-84220057D01*
X145964286Y-84220057D02*
X146011905Y-84172438D01*
X146011905Y-84172438D02*
X146107143Y-84124819D01*
X146107143Y-84124819D02*
X146345238Y-84124819D01*
X146345238Y-84124819D02*
X146440476Y-84172438D01*
X146440476Y-84172438D02*
X146488095Y-84220057D01*
X146488095Y-84220057D02*
X146535714Y-84315295D01*
X146535714Y-84315295D02*
X146535714Y-84410533D01*
X146535714Y-84410533D02*
X146488095Y-84553390D01*
X146488095Y-84553390D02*
X145916667Y-85124819D01*
X145916667Y-85124819D02*
X146535714Y-85124819D01*
X108273809Y-96124819D02*
X108273809Y-95124819D01*
X108273809Y-95124819D02*
X108654761Y-95124819D01*
X108654761Y-95124819D02*
X108749999Y-95172438D01*
X108749999Y-95172438D02*
X108797618Y-95220057D01*
X108797618Y-95220057D02*
X108845237Y-95315295D01*
X108845237Y-95315295D02*
X108845237Y-95458152D01*
X108845237Y-95458152D02*
X108797618Y-95553390D01*
X108797618Y-95553390D02*
X108749999Y-95601009D01*
X108749999Y-95601009D02*
X108654761Y-95648628D01*
X108654761Y-95648628D02*
X108273809Y-95648628D01*
X109416666Y-96124819D02*
X109321428Y-96077200D01*
X109321428Y-96077200D02*
X109273809Y-96029580D01*
X109273809Y-96029580D02*
X109226190Y-95934342D01*
X109226190Y-95934342D02*
X109226190Y-95648628D01*
X109226190Y-95648628D02*
X109273809Y-95553390D01*
X109273809Y-95553390D02*
X109321428Y-95505771D01*
X109321428Y-95505771D02*
X109416666Y-95458152D01*
X109416666Y-95458152D02*
X109559523Y-95458152D01*
X109559523Y-95458152D02*
X109654761Y-95505771D01*
X109654761Y-95505771D02*
X109702380Y-95553390D01*
X109702380Y-95553390D02*
X109749999Y-95648628D01*
X109749999Y-95648628D02*
X109749999Y-95934342D01*
X109749999Y-95934342D02*
X109702380Y-96029580D01*
X109702380Y-96029580D02*
X109654761Y-96077200D01*
X109654761Y-96077200D02*
X109559523Y-96124819D01*
X109559523Y-96124819D02*
X109416666Y-96124819D01*
X110083333Y-95458152D02*
X110273809Y-96124819D01*
X110273809Y-96124819D02*
X110464285Y-95648628D01*
X110464285Y-95648628D02*
X110654761Y-96124819D01*
X110654761Y-96124819D02*
X110845237Y-95458152D01*
X111607142Y-96077200D02*
X111511904Y-96124819D01*
X111511904Y-96124819D02*
X111321428Y-96124819D01*
X111321428Y-96124819D02*
X111226190Y-96077200D01*
X111226190Y-96077200D02*
X111178571Y-95981961D01*
X111178571Y-95981961D02*
X111178571Y-95601009D01*
X111178571Y-95601009D02*
X111226190Y-95505771D01*
X111226190Y-95505771D02*
X111321428Y-95458152D01*
X111321428Y-95458152D02*
X111511904Y-95458152D01*
X111511904Y-95458152D02*
X111607142Y-95505771D01*
X111607142Y-95505771D02*
X111654761Y-95601009D01*
X111654761Y-95601009D02*
X111654761Y-95696247D01*
X111654761Y-95696247D02*
X111178571Y-95791485D01*
X112083333Y-96124819D02*
X112083333Y-95458152D01*
X112083333Y-95648628D02*
X112130952Y-95553390D01*
X112130952Y-95553390D02*
X112178571Y-95505771D01*
X112178571Y-95505771D02*
X112273809Y-95458152D01*
X112273809Y-95458152D02*
X112369047Y-95458152D01*
X118583333Y-124624819D02*
X118250000Y-124148628D01*
X118011905Y-124624819D02*
X118011905Y-123624819D01*
X118011905Y-123624819D02*
X118392857Y-123624819D01*
X118392857Y-123624819D02*
X118488095Y-123672438D01*
X118488095Y-123672438D02*
X118535714Y-123720057D01*
X118535714Y-123720057D02*
X118583333Y-123815295D01*
X118583333Y-123815295D02*
X118583333Y-123958152D01*
X118583333Y-123958152D02*
X118535714Y-124053390D01*
X118535714Y-124053390D02*
X118488095Y-124101009D01*
X118488095Y-124101009D02*
X118392857Y-124148628D01*
X118392857Y-124148628D02*
X118011905Y-124148628D01*
X119440476Y-123958152D02*
X119440476Y-124624819D01*
X119202381Y-123577200D02*
X118964286Y-124291485D01*
X118964286Y-124291485D02*
X119583333Y-124291485D01*
X141083333Y-85029580D02*
X141035714Y-85077200D01*
X141035714Y-85077200D02*
X140892857Y-85124819D01*
X140892857Y-85124819D02*
X140797619Y-85124819D01*
X140797619Y-85124819D02*
X140654762Y-85077200D01*
X140654762Y-85077200D02*
X140559524Y-84981961D01*
X140559524Y-84981961D02*
X140511905Y-84886723D01*
X140511905Y-84886723D02*
X140464286Y-84696247D01*
X140464286Y-84696247D02*
X140464286Y-84553390D01*
X140464286Y-84553390D02*
X140511905Y-84362914D01*
X140511905Y-84362914D02*
X140559524Y-84267676D01*
X140559524Y-84267676D02*
X140654762Y-84172438D01*
X140654762Y-84172438D02*
X140797619Y-84124819D01*
X140797619Y-84124819D02*
X140892857Y-84124819D01*
X140892857Y-84124819D02*
X141035714Y-84172438D01*
X141035714Y-84172438D02*
X141083333Y-84220057D01*
X142035714Y-85124819D02*
X141464286Y-85124819D01*
X141750000Y-85124819D02*
X141750000Y-84124819D01*
X141750000Y-84124819D02*
X141654762Y-84267676D01*
X141654762Y-84267676D02*
X141559524Y-84362914D01*
X141559524Y-84362914D02*
X141464286Y-84410533D01*
X151181009Y-73741429D02*
X151228628Y-73598572D01*
X151228628Y-73598572D02*
X151276247Y-73550953D01*
X151276247Y-73550953D02*
X151371485Y-73503334D01*
X151371485Y-73503334D02*
X151514342Y-73503334D01*
X151514342Y-73503334D02*
X151609580Y-73550953D01*
X151609580Y-73550953D02*
X151657200Y-73598572D01*
X151657200Y-73598572D02*
X151704819Y-73693810D01*
X151704819Y-73693810D02*
X151704819Y-74074762D01*
X151704819Y-74074762D02*
X150704819Y-74074762D01*
X150704819Y-74074762D02*
X150704819Y-73741429D01*
X150704819Y-73741429D02*
X150752438Y-73646191D01*
X150752438Y-73646191D02*
X150800057Y-73598572D01*
X150800057Y-73598572D02*
X150895295Y-73550953D01*
X150895295Y-73550953D02*
X150990533Y-73550953D01*
X150990533Y-73550953D02*
X151085771Y-73598572D01*
X151085771Y-73598572D02*
X151133390Y-73646191D01*
X151133390Y-73646191D02*
X151181009Y-73741429D01*
X151181009Y-73741429D02*
X151181009Y-74074762D01*
X151704819Y-72646191D02*
X151181009Y-72646191D01*
X151181009Y-72646191D02*
X151085771Y-72693810D01*
X151085771Y-72693810D02*
X151038152Y-72789048D01*
X151038152Y-72789048D02*
X151038152Y-72979524D01*
X151038152Y-72979524D02*
X151085771Y-73074762D01*
X151657200Y-72646191D02*
X151704819Y-72741429D01*
X151704819Y-72741429D02*
X151704819Y-72979524D01*
X151704819Y-72979524D02*
X151657200Y-73074762D01*
X151657200Y-73074762D02*
X151561961Y-73122381D01*
X151561961Y-73122381D02*
X151466723Y-73122381D01*
X151466723Y-73122381D02*
X151371485Y-73074762D01*
X151371485Y-73074762D02*
X151323866Y-72979524D01*
X151323866Y-72979524D02*
X151323866Y-72741429D01*
X151323866Y-72741429D02*
X151276247Y-72646191D01*
X151038152Y-72312857D02*
X151038152Y-71931905D01*
X150704819Y-72170000D02*
X151561961Y-72170000D01*
X151561961Y-72170000D02*
X151657200Y-72122381D01*
X151657200Y-72122381D02*
X151704819Y-72027143D01*
X151704819Y-72027143D02*
X151704819Y-71931905D01*
X151038152Y-71741428D02*
X151038152Y-71360476D01*
X150704819Y-71598571D02*
X151561961Y-71598571D01*
X151561961Y-71598571D02*
X151657200Y-71550952D01*
X151657200Y-71550952D02*
X151704819Y-71455714D01*
X151704819Y-71455714D02*
X151704819Y-71360476D01*
X151657200Y-70646190D02*
X151704819Y-70741428D01*
X151704819Y-70741428D02*
X151704819Y-70931904D01*
X151704819Y-70931904D02*
X151657200Y-71027142D01*
X151657200Y-71027142D02*
X151561961Y-71074761D01*
X151561961Y-71074761D02*
X151181009Y-71074761D01*
X151181009Y-71074761D02*
X151085771Y-71027142D01*
X151085771Y-71027142D02*
X151038152Y-70931904D01*
X151038152Y-70931904D02*
X151038152Y-70741428D01*
X151038152Y-70741428D02*
X151085771Y-70646190D01*
X151085771Y-70646190D02*
X151181009Y-70598571D01*
X151181009Y-70598571D02*
X151276247Y-70598571D01*
X151276247Y-70598571D02*
X151371485Y-71074761D01*
X151704819Y-70169999D02*
X151038152Y-70169999D01*
X151228628Y-70169999D02*
X151133390Y-70122380D01*
X151133390Y-70122380D02*
X151085771Y-70074761D01*
X151085771Y-70074761D02*
X151038152Y-69979523D01*
X151038152Y-69979523D02*
X151038152Y-69884285D01*
X151038152Y-69646189D02*
X151704819Y-69408094D01*
X151038152Y-69169999D02*
X151704819Y-69408094D01*
X151704819Y-69408094D02*
X151942914Y-69503332D01*
X151942914Y-69503332D02*
X151990533Y-69550951D01*
X151990533Y-69550951D02*
X152038152Y-69646189D01*
X125233333Y-94219580D02*
X125185714Y-94267200D01*
X125185714Y-94267200D02*
X125042857Y-94314819D01*
X125042857Y-94314819D02*
X124947619Y-94314819D01*
X124947619Y-94314819D02*
X124804762Y-94267200D01*
X124804762Y-94267200D02*
X124709524Y-94171961D01*
X124709524Y-94171961D02*
X124661905Y-94076723D01*
X124661905Y-94076723D02*
X124614286Y-93886247D01*
X124614286Y-93886247D02*
X124614286Y-93743390D01*
X124614286Y-93743390D02*
X124661905Y-93552914D01*
X124661905Y-93552914D02*
X124709524Y-93457676D01*
X124709524Y-93457676D02*
X124804762Y-93362438D01*
X124804762Y-93362438D02*
X124947619Y-93314819D01*
X124947619Y-93314819D02*
X125042857Y-93314819D01*
X125042857Y-93314819D02*
X125185714Y-93362438D01*
X125185714Y-93362438D02*
X125233333Y-93410057D01*
X126138095Y-93314819D02*
X125661905Y-93314819D01*
X125661905Y-93314819D02*
X125614286Y-93791009D01*
X125614286Y-93791009D02*
X125661905Y-93743390D01*
X125661905Y-93743390D02*
X125757143Y-93695771D01*
X125757143Y-93695771D02*
X125995238Y-93695771D01*
X125995238Y-93695771D02*
X126090476Y-93743390D01*
X126090476Y-93743390D02*
X126138095Y-93791009D01*
X126138095Y-93791009D02*
X126185714Y-93886247D01*
X126185714Y-93886247D02*
X126185714Y-94124342D01*
X126185714Y-94124342D02*
X126138095Y-94219580D01*
X126138095Y-94219580D02*
X126090476Y-94267200D01*
X126090476Y-94267200D02*
X125995238Y-94314819D01*
X125995238Y-94314819D02*
X125757143Y-94314819D01*
X125757143Y-94314819D02*
X125661905Y-94267200D01*
X125661905Y-94267200D02*
X125614286Y-94219580D01*
X116583333Y-92529580D02*
X116535714Y-92577200D01*
X116535714Y-92577200D02*
X116392857Y-92624819D01*
X116392857Y-92624819D02*
X116297619Y-92624819D01*
X116297619Y-92624819D02*
X116154762Y-92577200D01*
X116154762Y-92577200D02*
X116059524Y-92481961D01*
X116059524Y-92481961D02*
X116011905Y-92386723D01*
X116011905Y-92386723D02*
X115964286Y-92196247D01*
X115964286Y-92196247D02*
X115964286Y-92053390D01*
X115964286Y-92053390D02*
X116011905Y-91862914D01*
X116011905Y-91862914D02*
X116059524Y-91767676D01*
X116059524Y-91767676D02*
X116154762Y-91672438D01*
X116154762Y-91672438D02*
X116297619Y-91624819D01*
X116297619Y-91624819D02*
X116392857Y-91624819D01*
X116392857Y-91624819D02*
X116535714Y-91672438D01*
X116535714Y-91672438D02*
X116583333Y-91720057D01*
X116916667Y-91624819D02*
X117583333Y-91624819D01*
X117583333Y-91624819D02*
X117154762Y-92624819D01*
X111083333Y-109624819D02*
X110750000Y-109148628D01*
X110511905Y-109624819D02*
X110511905Y-108624819D01*
X110511905Y-108624819D02*
X110892857Y-108624819D01*
X110892857Y-108624819D02*
X110988095Y-108672438D01*
X110988095Y-108672438D02*
X111035714Y-108720057D01*
X111035714Y-108720057D02*
X111083333Y-108815295D01*
X111083333Y-108815295D02*
X111083333Y-108958152D01*
X111083333Y-108958152D02*
X111035714Y-109053390D01*
X111035714Y-109053390D02*
X110988095Y-109101009D01*
X110988095Y-109101009D02*
X110892857Y-109148628D01*
X110892857Y-109148628D02*
X110511905Y-109148628D01*
X112035714Y-109624819D02*
X111464286Y-109624819D01*
X111750000Y-109624819D02*
X111750000Y-108624819D01*
X111750000Y-108624819D02*
X111654762Y-108767676D01*
X111654762Y-108767676D02*
X111559524Y-108862914D01*
X111559524Y-108862914D02*
X111464286Y-108910533D01*
X95630952Y-95601009D02*
X95773809Y-95648628D01*
X95773809Y-95648628D02*
X95821428Y-95696247D01*
X95821428Y-95696247D02*
X95869047Y-95791485D01*
X95869047Y-95791485D02*
X95869047Y-95934342D01*
X95869047Y-95934342D02*
X95821428Y-96029580D01*
X95821428Y-96029580D02*
X95773809Y-96077200D01*
X95773809Y-96077200D02*
X95678571Y-96124819D01*
X95678571Y-96124819D02*
X95297619Y-96124819D01*
X95297619Y-96124819D02*
X95297619Y-95124819D01*
X95297619Y-95124819D02*
X95630952Y-95124819D01*
X95630952Y-95124819D02*
X95726190Y-95172438D01*
X95726190Y-95172438D02*
X95773809Y-95220057D01*
X95773809Y-95220057D02*
X95821428Y-95315295D01*
X95821428Y-95315295D02*
X95821428Y-95410533D01*
X95821428Y-95410533D02*
X95773809Y-95505771D01*
X95773809Y-95505771D02*
X95726190Y-95553390D01*
X95726190Y-95553390D02*
X95630952Y-95601009D01*
X95630952Y-95601009D02*
X95297619Y-95601009D01*
X96440476Y-96124819D02*
X96345238Y-96077200D01*
X96345238Y-96077200D02*
X96297619Y-96029580D01*
X96297619Y-96029580D02*
X96250000Y-95934342D01*
X96250000Y-95934342D02*
X96250000Y-95648628D01*
X96250000Y-95648628D02*
X96297619Y-95553390D01*
X96297619Y-95553390D02*
X96345238Y-95505771D01*
X96345238Y-95505771D02*
X96440476Y-95458152D01*
X96440476Y-95458152D02*
X96583333Y-95458152D01*
X96583333Y-95458152D02*
X96678571Y-95505771D01*
X96678571Y-95505771D02*
X96726190Y-95553390D01*
X96726190Y-95553390D02*
X96773809Y-95648628D01*
X96773809Y-95648628D02*
X96773809Y-95934342D01*
X96773809Y-95934342D02*
X96726190Y-96029580D01*
X96726190Y-96029580D02*
X96678571Y-96077200D01*
X96678571Y-96077200D02*
X96583333Y-96124819D01*
X96583333Y-96124819D02*
X96440476Y-96124819D01*
X97345238Y-96124819D02*
X97250000Y-96077200D01*
X97250000Y-96077200D02*
X97202381Y-96029580D01*
X97202381Y-96029580D02*
X97154762Y-95934342D01*
X97154762Y-95934342D02*
X97154762Y-95648628D01*
X97154762Y-95648628D02*
X97202381Y-95553390D01*
X97202381Y-95553390D02*
X97250000Y-95505771D01*
X97250000Y-95505771D02*
X97345238Y-95458152D01*
X97345238Y-95458152D02*
X97488095Y-95458152D01*
X97488095Y-95458152D02*
X97583333Y-95505771D01*
X97583333Y-95505771D02*
X97630952Y-95553390D01*
X97630952Y-95553390D02*
X97678571Y-95648628D01*
X97678571Y-95648628D02*
X97678571Y-95934342D01*
X97678571Y-95934342D02*
X97630952Y-96029580D01*
X97630952Y-96029580D02*
X97583333Y-96077200D01*
X97583333Y-96077200D02*
X97488095Y-96124819D01*
X97488095Y-96124819D02*
X97345238Y-96124819D01*
X97964286Y-95458152D02*
X98345238Y-95458152D01*
X98107143Y-95124819D02*
X98107143Y-95981961D01*
X98107143Y-95981961D02*
X98154762Y-96077200D01*
X98154762Y-96077200D02*
X98250000Y-96124819D01*
X98250000Y-96124819D02*
X98345238Y-96124819D01*
X132083333Y-85029580D02*
X132035714Y-85077200D01*
X132035714Y-85077200D02*
X131892857Y-85124819D01*
X131892857Y-85124819D02*
X131797619Y-85124819D01*
X131797619Y-85124819D02*
X131654762Y-85077200D01*
X131654762Y-85077200D02*
X131559524Y-84981961D01*
X131559524Y-84981961D02*
X131511905Y-84886723D01*
X131511905Y-84886723D02*
X131464286Y-84696247D01*
X131464286Y-84696247D02*
X131464286Y-84553390D01*
X131464286Y-84553390D02*
X131511905Y-84362914D01*
X131511905Y-84362914D02*
X131559524Y-84267676D01*
X131559524Y-84267676D02*
X131654762Y-84172438D01*
X131654762Y-84172438D02*
X131797619Y-84124819D01*
X131797619Y-84124819D02*
X131892857Y-84124819D01*
X131892857Y-84124819D02*
X132035714Y-84172438D01*
X132035714Y-84172438D02*
X132083333Y-84220057D01*
X132416667Y-84124819D02*
X133035714Y-84124819D01*
X133035714Y-84124819D02*
X132702381Y-84505771D01*
X132702381Y-84505771D02*
X132845238Y-84505771D01*
X132845238Y-84505771D02*
X132940476Y-84553390D01*
X132940476Y-84553390D02*
X132988095Y-84601009D01*
X132988095Y-84601009D02*
X133035714Y-84696247D01*
X133035714Y-84696247D02*
X133035714Y-84934342D01*
X133035714Y-84934342D02*
X132988095Y-85029580D01*
X132988095Y-85029580D02*
X132940476Y-85077200D01*
X132940476Y-85077200D02*
X132845238Y-85124819D01*
X132845238Y-85124819D02*
X132559524Y-85124819D01*
X132559524Y-85124819D02*
X132464286Y-85077200D01*
X132464286Y-85077200D02*
X132416667Y-85029580D01*
X111083333Y-106124819D02*
X110750000Y-105648628D01*
X110511905Y-106124819D02*
X110511905Y-105124819D01*
X110511905Y-105124819D02*
X110892857Y-105124819D01*
X110892857Y-105124819D02*
X110988095Y-105172438D01*
X110988095Y-105172438D02*
X111035714Y-105220057D01*
X111035714Y-105220057D02*
X111083333Y-105315295D01*
X111083333Y-105315295D02*
X111083333Y-105458152D01*
X111083333Y-105458152D02*
X111035714Y-105553390D01*
X111035714Y-105553390D02*
X110988095Y-105601009D01*
X110988095Y-105601009D02*
X110892857Y-105648628D01*
X110892857Y-105648628D02*
X110511905Y-105648628D01*
X111464286Y-105220057D02*
X111511905Y-105172438D01*
X111511905Y-105172438D02*
X111607143Y-105124819D01*
X111607143Y-105124819D02*
X111845238Y-105124819D01*
X111845238Y-105124819D02*
X111940476Y-105172438D01*
X111940476Y-105172438D02*
X111988095Y-105220057D01*
X111988095Y-105220057D02*
X112035714Y-105315295D01*
X112035714Y-105315295D02*
X112035714Y-105410533D01*
X112035714Y-105410533D02*
X111988095Y-105553390D01*
X111988095Y-105553390D02*
X111416667Y-106124819D01*
X111416667Y-106124819D02*
X112035714Y-106124819D01*
X104421429Y-55624819D02*
X104421429Y-56434342D01*
X104421429Y-56434342D02*
X104459524Y-56529580D01*
X104459524Y-56529580D02*
X104497619Y-56577200D01*
X104497619Y-56577200D02*
X104573810Y-56624819D01*
X104573810Y-56624819D02*
X104726191Y-56624819D01*
X104726191Y-56624819D02*
X104802381Y-56577200D01*
X104802381Y-56577200D02*
X104840476Y-56529580D01*
X104840476Y-56529580D02*
X104878572Y-56434342D01*
X104878572Y-56434342D02*
X104878572Y-55624819D01*
X105221428Y-56577200D02*
X105335714Y-56624819D01*
X105335714Y-56624819D02*
X105526190Y-56624819D01*
X105526190Y-56624819D02*
X105602381Y-56577200D01*
X105602381Y-56577200D02*
X105640476Y-56529580D01*
X105640476Y-56529580D02*
X105678571Y-56434342D01*
X105678571Y-56434342D02*
X105678571Y-56339104D01*
X105678571Y-56339104D02*
X105640476Y-56243866D01*
X105640476Y-56243866D02*
X105602381Y-56196247D01*
X105602381Y-56196247D02*
X105526190Y-56148628D01*
X105526190Y-56148628D02*
X105373809Y-56101009D01*
X105373809Y-56101009D02*
X105297619Y-56053390D01*
X105297619Y-56053390D02*
X105259524Y-56005771D01*
X105259524Y-56005771D02*
X105221428Y-55910533D01*
X105221428Y-55910533D02*
X105221428Y-55815295D01*
X105221428Y-55815295D02*
X105259524Y-55720057D01*
X105259524Y-55720057D02*
X105297619Y-55672438D01*
X105297619Y-55672438D02*
X105373809Y-55624819D01*
X105373809Y-55624819D02*
X105564286Y-55624819D01*
X105564286Y-55624819D02*
X105678571Y-55672438D01*
X106288095Y-56101009D02*
X106402381Y-56148628D01*
X106402381Y-56148628D02*
X106440476Y-56196247D01*
X106440476Y-56196247D02*
X106478572Y-56291485D01*
X106478572Y-56291485D02*
X106478572Y-56434342D01*
X106478572Y-56434342D02*
X106440476Y-56529580D01*
X106440476Y-56529580D02*
X106402381Y-56577200D01*
X106402381Y-56577200D02*
X106326191Y-56624819D01*
X106326191Y-56624819D02*
X106021429Y-56624819D01*
X106021429Y-56624819D02*
X106021429Y-55624819D01*
X106021429Y-55624819D02*
X106288095Y-55624819D01*
X106288095Y-55624819D02*
X106364286Y-55672438D01*
X106364286Y-55672438D02*
X106402381Y-55720057D01*
X106402381Y-55720057D02*
X106440476Y-55815295D01*
X106440476Y-55815295D02*
X106440476Y-55910533D01*
X106440476Y-55910533D02*
X106402381Y-56005771D01*
X106402381Y-56005771D02*
X106364286Y-56053390D01*
X106364286Y-56053390D02*
X106288095Y-56101009D01*
X106288095Y-56101009D02*
X106021429Y-56101009D01*
X107316667Y-55624819D02*
X107583334Y-56624819D01*
X107583334Y-56624819D02*
X107850000Y-55624819D01*
X108459524Y-56577200D02*
X108383333Y-56624819D01*
X108383333Y-56624819D02*
X108230952Y-56624819D01*
X108230952Y-56624819D02*
X108154762Y-56577200D01*
X108154762Y-56577200D02*
X108116667Y-56529580D01*
X108116667Y-56529580D02*
X108078571Y-56434342D01*
X108078571Y-56434342D02*
X108078571Y-56148628D01*
X108078571Y-56148628D02*
X108116667Y-56053390D01*
X108116667Y-56053390D02*
X108154762Y-56005771D01*
X108154762Y-56005771D02*
X108230952Y-55958152D01*
X108230952Y-55958152D02*
X108383333Y-55958152D01*
X108383333Y-55958152D02*
X108459524Y-56005771D01*
X109145238Y-56577200D02*
X109069047Y-56624819D01*
X109069047Y-56624819D02*
X108916666Y-56624819D01*
X108916666Y-56624819D02*
X108840476Y-56577200D01*
X108840476Y-56577200D02*
X108802381Y-56529580D01*
X108802381Y-56529580D02*
X108764285Y-56434342D01*
X108764285Y-56434342D02*
X108764285Y-56148628D01*
X108764285Y-56148628D02*
X108802381Y-56053390D01*
X108802381Y-56053390D02*
X108840476Y-56005771D01*
X108840476Y-56005771D02*
X108916666Y-55958152D01*
X108916666Y-55958152D02*
X109069047Y-55958152D01*
X109069047Y-55958152D02*
X109145238Y-56005771D01*
X110364285Y-56101009D02*
X110478571Y-56148628D01*
X110478571Y-56148628D02*
X110516666Y-56196247D01*
X110516666Y-56196247D02*
X110554762Y-56291485D01*
X110554762Y-56291485D02*
X110554762Y-56434342D01*
X110554762Y-56434342D02*
X110516666Y-56529580D01*
X110516666Y-56529580D02*
X110478571Y-56577200D01*
X110478571Y-56577200D02*
X110402381Y-56624819D01*
X110402381Y-56624819D02*
X110097619Y-56624819D01*
X110097619Y-56624819D02*
X110097619Y-55624819D01*
X110097619Y-55624819D02*
X110364285Y-55624819D01*
X110364285Y-55624819D02*
X110440476Y-55672438D01*
X110440476Y-55672438D02*
X110478571Y-55720057D01*
X110478571Y-55720057D02*
X110516666Y-55815295D01*
X110516666Y-55815295D02*
X110516666Y-55910533D01*
X110516666Y-55910533D02*
X110478571Y-56005771D01*
X110478571Y-56005771D02*
X110440476Y-56053390D01*
X110440476Y-56053390D02*
X110364285Y-56101009D01*
X110364285Y-56101009D02*
X110097619Y-56101009D01*
X111240476Y-56624819D02*
X111240476Y-56101009D01*
X111240476Y-56101009D02*
X111202381Y-56005771D01*
X111202381Y-56005771D02*
X111126190Y-55958152D01*
X111126190Y-55958152D02*
X110973809Y-55958152D01*
X110973809Y-55958152D02*
X110897619Y-56005771D01*
X111240476Y-56577200D02*
X111164285Y-56624819D01*
X111164285Y-56624819D02*
X110973809Y-56624819D01*
X110973809Y-56624819D02*
X110897619Y-56577200D01*
X110897619Y-56577200D02*
X110859523Y-56481961D01*
X110859523Y-56481961D02*
X110859523Y-56386723D01*
X110859523Y-56386723D02*
X110897619Y-56291485D01*
X110897619Y-56291485D02*
X110973809Y-56243866D01*
X110973809Y-56243866D02*
X111164285Y-56243866D01*
X111164285Y-56243866D02*
X111240476Y-56196247D01*
X111507143Y-55958152D02*
X111811905Y-55958152D01*
X111621429Y-55624819D02*
X111621429Y-56481961D01*
X111621429Y-56481961D02*
X111659524Y-56577200D01*
X111659524Y-56577200D02*
X111735714Y-56624819D01*
X111735714Y-56624819D02*
X111811905Y-56624819D01*
X112078572Y-56529580D02*
X112116667Y-56577200D01*
X112116667Y-56577200D02*
X112078572Y-56624819D01*
X112078572Y-56624819D02*
X112040476Y-56577200D01*
X112040476Y-56577200D02*
X112078572Y-56529580D01*
X112078572Y-56529580D02*
X112078572Y-56624819D01*
X103440475Y-140077200D02*
X103583332Y-140124819D01*
X103583332Y-140124819D02*
X103821427Y-140124819D01*
X103821427Y-140124819D02*
X103916665Y-140077200D01*
X103916665Y-140077200D02*
X103964284Y-140029580D01*
X103964284Y-140029580D02*
X104011903Y-139934342D01*
X104011903Y-139934342D02*
X104011903Y-139839104D01*
X104011903Y-139839104D02*
X103964284Y-139743866D01*
X103964284Y-139743866D02*
X103916665Y-139696247D01*
X103916665Y-139696247D02*
X103821427Y-139648628D01*
X103821427Y-139648628D02*
X103630951Y-139601009D01*
X103630951Y-139601009D02*
X103535713Y-139553390D01*
X103535713Y-139553390D02*
X103488094Y-139505771D01*
X103488094Y-139505771D02*
X103440475Y-139410533D01*
X103440475Y-139410533D02*
X103440475Y-139315295D01*
X103440475Y-139315295D02*
X103488094Y-139220057D01*
X103488094Y-139220057D02*
X103535713Y-139172438D01*
X103535713Y-139172438D02*
X103630951Y-139124819D01*
X103630951Y-139124819D02*
X103869046Y-139124819D01*
X103869046Y-139124819D02*
X104011903Y-139172438D01*
X104297618Y-139458152D02*
X104678570Y-139458152D01*
X104440475Y-139124819D02*
X104440475Y-139981961D01*
X104440475Y-139981961D02*
X104488094Y-140077200D01*
X104488094Y-140077200D02*
X104583332Y-140124819D01*
X104583332Y-140124819D02*
X104678570Y-140124819D01*
X105440475Y-140124819D02*
X105440475Y-139601009D01*
X105440475Y-139601009D02*
X105392856Y-139505771D01*
X105392856Y-139505771D02*
X105297618Y-139458152D01*
X105297618Y-139458152D02*
X105107142Y-139458152D01*
X105107142Y-139458152D02*
X105011904Y-139505771D01*
X105440475Y-140077200D02*
X105345237Y-140124819D01*
X105345237Y-140124819D02*
X105107142Y-140124819D01*
X105107142Y-140124819D02*
X105011904Y-140077200D01*
X105011904Y-140077200D02*
X104964285Y-139981961D01*
X104964285Y-139981961D02*
X104964285Y-139886723D01*
X104964285Y-139886723D02*
X105011904Y-139791485D01*
X105011904Y-139791485D02*
X105107142Y-139743866D01*
X105107142Y-139743866D02*
X105345237Y-139743866D01*
X105345237Y-139743866D02*
X105440475Y-139696247D01*
X105916666Y-140124819D02*
X105916666Y-139458152D01*
X105916666Y-139648628D02*
X105964285Y-139553390D01*
X105964285Y-139553390D02*
X106011904Y-139505771D01*
X106011904Y-139505771D02*
X106107142Y-139458152D01*
X106107142Y-139458152D02*
X106202380Y-139458152D01*
X106392857Y-139458152D02*
X106773809Y-139458152D01*
X106535714Y-139124819D02*
X106535714Y-139981961D01*
X106535714Y-139981961D02*
X106583333Y-140077200D01*
X106583333Y-140077200D02*
X106678571Y-140124819D01*
X106678571Y-140124819D02*
X106773809Y-140124819D01*
X107821428Y-139077200D02*
X106964286Y-140362914D01*
X108107143Y-140077200D02*
X108250000Y-140124819D01*
X108250000Y-140124819D02*
X108488095Y-140124819D01*
X108488095Y-140124819D02*
X108583333Y-140077200D01*
X108583333Y-140077200D02*
X108630952Y-140029580D01*
X108630952Y-140029580D02*
X108678571Y-139934342D01*
X108678571Y-139934342D02*
X108678571Y-139839104D01*
X108678571Y-139839104D02*
X108630952Y-139743866D01*
X108630952Y-139743866D02*
X108583333Y-139696247D01*
X108583333Y-139696247D02*
X108488095Y-139648628D01*
X108488095Y-139648628D02*
X108297619Y-139601009D01*
X108297619Y-139601009D02*
X108202381Y-139553390D01*
X108202381Y-139553390D02*
X108154762Y-139505771D01*
X108154762Y-139505771D02*
X108107143Y-139410533D01*
X108107143Y-139410533D02*
X108107143Y-139315295D01*
X108107143Y-139315295D02*
X108154762Y-139220057D01*
X108154762Y-139220057D02*
X108202381Y-139172438D01*
X108202381Y-139172438D02*
X108297619Y-139124819D01*
X108297619Y-139124819D02*
X108535714Y-139124819D01*
X108535714Y-139124819D02*
X108678571Y-139172438D01*
X108964286Y-139458152D02*
X109345238Y-139458152D01*
X109107143Y-139124819D02*
X109107143Y-139981961D01*
X109107143Y-139981961D02*
X109154762Y-140077200D01*
X109154762Y-140077200D02*
X109250000Y-140124819D01*
X109250000Y-140124819D02*
X109345238Y-140124819D01*
X109821429Y-140124819D02*
X109726191Y-140077200D01*
X109726191Y-140077200D02*
X109678572Y-140029580D01*
X109678572Y-140029580D02*
X109630953Y-139934342D01*
X109630953Y-139934342D02*
X109630953Y-139648628D01*
X109630953Y-139648628D02*
X109678572Y-139553390D01*
X109678572Y-139553390D02*
X109726191Y-139505771D01*
X109726191Y-139505771D02*
X109821429Y-139458152D01*
X109821429Y-139458152D02*
X109964286Y-139458152D01*
X109964286Y-139458152D02*
X110059524Y-139505771D01*
X110059524Y-139505771D02*
X110107143Y-139553390D01*
X110107143Y-139553390D02*
X110154762Y-139648628D01*
X110154762Y-139648628D02*
X110154762Y-139934342D01*
X110154762Y-139934342D02*
X110107143Y-140029580D01*
X110107143Y-140029580D02*
X110059524Y-140077200D01*
X110059524Y-140077200D02*
X109964286Y-140124819D01*
X109964286Y-140124819D02*
X109821429Y-140124819D01*
X110583334Y-139458152D02*
X110583334Y-140458152D01*
X110583334Y-139505771D02*
X110678572Y-139458152D01*
X110678572Y-139458152D02*
X110869048Y-139458152D01*
X110869048Y-139458152D02*
X110964286Y-139505771D01*
X110964286Y-139505771D02*
X111011905Y-139553390D01*
X111011905Y-139553390D02*
X111059524Y-139648628D01*
X111059524Y-139648628D02*
X111059524Y-139934342D01*
X111059524Y-139934342D02*
X111011905Y-140029580D01*
X111011905Y-140029580D02*
X110964286Y-140077200D01*
X110964286Y-140077200D02*
X110869048Y-140124819D01*
X110869048Y-140124819D02*
X110678572Y-140124819D01*
X110678572Y-140124819D02*
X110583334Y-140077200D01*
X118559524Y-139124819D02*
X118797619Y-140124819D01*
X118797619Y-140124819D02*
X118988095Y-139410533D01*
X118988095Y-139410533D02*
X119178571Y-140124819D01*
X119178571Y-140124819D02*
X119416667Y-139124819D01*
X119797619Y-140124819D02*
X119797619Y-139458152D01*
X119797619Y-139124819D02*
X119750000Y-139172438D01*
X119750000Y-139172438D02*
X119797619Y-139220057D01*
X119797619Y-139220057D02*
X119845238Y-139172438D01*
X119845238Y-139172438D02*
X119797619Y-139124819D01*
X119797619Y-139124819D02*
X119797619Y-139220057D01*
X120130952Y-139458152D02*
X120511904Y-139458152D01*
X120273809Y-140124819D02*
X120273809Y-139267676D01*
X120273809Y-139267676D02*
X120321428Y-139172438D01*
X120321428Y-139172438D02*
X120416666Y-139124819D01*
X120416666Y-139124819D02*
X120511904Y-139124819D01*
X120845238Y-140124819D02*
X120845238Y-139458152D01*
X120845238Y-139124819D02*
X120797619Y-139172438D01*
X120797619Y-139172438D02*
X120845238Y-139220057D01*
X120845238Y-139220057D02*
X120892857Y-139172438D01*
X120892857Y-139172438D02*
X120845238Y-139124819D01*
X120845238Y-139124819D02*
X120845238Y-139220057D01*
X95511904Y-84624819D02*
X95178571Y-84148628D01*
X94940476Y-84624819D02*
X94940476Y-83624819D01*
X94940476Y-83624819D02*
X95321428Y-83624819D01*
X95321428Y-83624819D02*
X95416666Y-83672438D01*
X95416666Y-83672438D02*
X95464285Y-83720057D01*
X95464285Y-83720057D02*
X95511904Y-83815295D01*
X95511904Y-83815295D02*
X95511904Y-83958152D01*
X95511904Y-83958152D02*
X95464285Y-84053390D01*
X95464285Y-84053390D02*
X95416666Y-84101009D01*
X95416666Y-84101009D02*
X95321428Y-84148628D01*
X95321428Y-84148628D02*
X94940476Y-84148628D01*
X96321428Y-84577200D02*
X96226190Y-84624819D01*
X96226190Y-84624819D02*
X96035714Y-84624819D01*
X96035714Y-84624819D02*
X95940476Y-84577200D01*
X95940476Y-84577200D02*
X95892857Y-84481961D01*
X95892857Y-84481961D02*
X95892857Y-84101009D01*
X95892857Y-84101009D02*
X95940476Y-84005771D01*
X95940476Y-84005771D02*
X96035714Y-83958152D01*
X96035714Y-83958152D02*
X96226190Y-83958152D01*
X96226190Y-83958152D02*
X96321428Y-84005771D01*
X96321428Y-84005771D02*
X96369047Y-84101009D01*
X96369047Y-84101009D02*
X96369047Y-84196247D01*
X96369047Y-84196247D02*
X95892857Y-84291485D01*
X96750000Y-84577200D02*
X96845238Y-84624819D01*
X96845238Y-84624819D02*
X97035714Y-84624819D01*
X97035714Y-84624819D02*
X97130952Y-84577200D01*
X97130952Y-84577200D02*
X97178571Y-84481961D01*
X97178571Y-84481961D02*
X97178571Y-84434342D01*
X97178571Y-84434342D02*
X97130952Y-84339104D01*
X97130952Y-84339104D02*
X97035714Y-84291485D01*
X97035714Y-84291485D02*
X96892857Y-84291485D01*
X96892857Y-84291485D02*
X96797619Y-84243866D01*
X96797619Y-84243866D02*
X96750000Y-84148628D01*
X96750000Y-84148628D02*
X96750000Y-84101009D01*
X96750000Y-84101009D02*
X96797619Y-84005771D01*
X96797619Y-84005771D02*
X96892857Y-83958152D01*
X96892857Y-83958152D02*
X97035714Y-83958152D01*
X97035714Y-83958152D02*
X97130952Y-84005771D01*
X97988095Y-84577200D02*
X97892857Y-84624819D01*
X97892857Y-84624819D02*
X97702381Y-84624819D01*
X97702381Y-84624819D02*
X97607143Y-84577200D01*
X97607143Y-84577200D02*
X97559524Y-84481961D01*
X97559524Y-84481961D02*
X97559524Y-84101009D01*
X97559524Y-84101009D02*
X97607143Y-84005771D01*
X97607143Y-84005771D02*
X97702381Y-83958152D01*
X97702381Y-83958152D02*
X97892857Y-83958152D01*
X97892857Y-83958152D02*
X97988095Y-84005771D01*
X97988095Y-84005771D02*
X98035714Y-84101009D01*
X98035714Y-84101009D02*
X98035714Y-84196247D01*
X98035714Y-84196247D02*
X97559524Y-84291485D01*
X98321429Y-83958152D02*
X98702381Y-83958152D01*
X98464286Y-83624819D02*
X98464286Y-84481961D01*
X98464286Y-84481961D02*
X98511905Y-84577200D01*
X98511905Y-84577200D02*
X98607143Y-84624819D01*
X98607143Y-84624819D02*
X98702381Y-84624819D01*
X118583333Y-128624819D02*
X118250000Y-128148628D01*
X118011905Y-128624819D02*
X118011905Y-127624819D01*
X118011905Y-127624819D02*
X118392857Y-127624819D01*
X118392857Y-127624819D02*
X118488095Y-127672438D01*
X118488095Y-127672438D02*
X118535714Y-127720057D01*
X118535714Y-127720057D02*
X118583333Y-127815295D01*
X118583333Y-127815295D02*
X118583333Y-127958152D01*
X118583333Y-127958152D02*
X118535714Y-128053390D01*
X118535714Y-128053390D02*
X118488095Y-128101009D01*
X118488095Y-128101009D02*
X118392857Y-128148628D01*
X118392857Y-128148628D02*
X118011905Y-128148628D01*
X118916667Y-127624819D02*
X119535714Y-127624819D01*
X119535714Y-127624819D02*
X119202381Y-128005771D01*
X119202381Y-128005771D02*
X119345238Y-128005771D01*
X119345238Y-128005771D02*
X119440476Y-128053390D01*
X119440476Y-128053390D02*
X119488095Y-128101009D01*
X119488095Y-128101009D02*
X119535714Y-128196247D01*
X119535714Y-128196247D02*
X119535714Y-128434342D01*
X119535714Y-128434342D02*
X119488095Y-128529580D01*
X119488095Y-128529580D02*
X119440476Y-128577200D01*
X119440476Y-128577200D02*
X119345238Y-128624819D01*
X119345238Y-128624819D02*
X119059524Y-128624819D01*
X119059524Y-128624819D02*
X118964286Y-128577200D01*
X118964286Y-128577200D02*
X118916667Y-128529580D01*
X110654762Y-71124819D02*
X110654762Y-70124819D01*
X110654762Y-70124819D02*
X110892857Y-70124819D01*
X110892857Y-70124819D02*
X111035714Y-70172438D01*
X111035714Y-70172438D02*
X111130952Y-70267676D01*
X111130952Y-70267676D02*
X111178571Y-70362914D01*
X111178571Y-70362914D02*
X111226190Y-70553390D01*
X111226190Y-70553390D02*
X111226190Y-70696247D01*
X111226190Y-70696247D02*
X111178571Y-70886723D01*
X111178571Y-70886723D02*
X111130952Y-70981961D01*
X111130952Y-70981961D02*
X111035714Y-71077200D01*
X111035714Y-71077200D02*
X110892857Y-71124819D01*
X110892857Y-71124819D02*
X110654762Y-71124819D01*
X112226190Y-71124819D02*
X111892857Y-70648628D01*
X111654762Y-71124819D02*
X111654762Y-70124819D01*
X111654762Y-70124819D02*
X112035714Y-70124819D01*
X112035714Y-70124819D02*
X112130952Y-70172438D01*
X112130952Y-70172438D02*
X112178571Y-70220057D01*
X112178571Y-70220057D02*
X112226190Y-70315295D01*
X112226190Y-70315295D02*
X112226190Y-70458152D01*
X112226190Y-70458152D02*
X112178571Y-70553390D01*
X112178571Y-70553390D02*
X112130952Y-70601009D01*
X112130952Y-70601009D02*
X112035714Y-70648628D01*
X112035714Y-70648628D02*
X111654762Y-70648628D01*
X112511905Y-70124819D02*
X112845238Y-71124819D01*
X112845238Y-71124819D02*
X113178571Y-70124819D01*
X113654762Y-70553390D02*
X113559524Y-70505771D01*
X113559524Y-70505771D02*
X113511905Y-70458152D01*
X113511905Y-70458152D02*
X113464286Y-70362914D01*
X113464286Y-70362914D02*
X113464286Y-70315295D01*
X113464286Y-70315295D02*
X113511905Y-70220057D01*
X113511905Y-70220057D02*
X113559524Y-70172438D01*
X113559524Y-70172438D02*
X113654762Y-70124819D01*
X113654762Y-70124819D02*
X113845238Y-70124819D01*
X113845238Y-70124819D02*
X113940476Y-70172438D01*
X113940476Y-70172438D02*
X113988095Y-70220057D01*
X113988095Y-70220057D02*
X114035714Y-70315295D01*
X114035714Y-70315295D02*
X114035714Y-70362914D01*
X114035714Y-70362914D02*
X113988095Y-70458152D01*
X113988095Y-70458152D02*
X113940476Y-70505771D01*
X113940476Y-70505771D02*
X113845238Y-70553390D01*
X113845238Y-70553390D02*
X113654762Y-70553390D01*
X113654762Y-70553390D02*
X113559524Y-70601009D01*
X113559524Y-70601009D02*
X113511905Y-70648628D01*
X113511905Y-70648628D02*
X113464286Y-70743866D01*
X113464286Y-70743866D02*
X113464286Y-70934342D01*
X113464286Y-70934342D02*
X113511905Y-71029580D01*
X113511905Y-71029580D02*
X113559524Y-71077200D01*
X113559524Y-71077200D02*
X113654762Y-71124819D01*
X113654762Y-71124819D02*
X113845238Y-71124819D01*
X113845238Y-71124819D02*
X113940476Y-71077200D01*
X113940476Y-71077200D02*
X113988095Y-71029580D01*
X113988095Y-71029580D02*
X114035714Y-70934342D01*
X114035714Y-70934342D02*
X114035714Y-70743866D01*
X114035714Y-70743866D02*
X113988095Y-70648628D01*
X113988095Y-70648628D02*
X113940476Y-70601009D01*
X113940476Y-70601009D02*
X113845238Y-70553390D01*
X114607143Y-70553390D02*
X114511905Y-70505771D01*
X114511905Y-70505771D02*
X114464286Y-70458152D01*
X114464286Y-70458152D02*
X114416667Y-70362914D01*
X114416667Y-70362914D02*
X114416667Y-70315295D01*
X114416667Y-70315295D02*
X114464286Y-70220057D01*
X114464286Y-70220057D02*
X114511905Y-70172438D01*
X114511905Y-70172438D02*
X114607143Y-70124819D01*
X114607143Y-70124819D02*
X114797619Y-70124819D01*
X114797619Y-70124819D02*
X114892857Y-70172438D01*
X114892857Y-70172438D02*
X114940476Y-70220057D01*
X114940476Y-70220057D02*
X114988095Y-70315295D01*
X114988095Y-70315295D02*
X114988095Y-70362914D01*
X114988095Y-70362914D02*
X114940476Y-70458152D01*
X114940476Y-70458152D02*
X114892857Y-70505771D01*
X114892857Y-70505771D02*
X114797619Y-70553390D01*
X114797619Y-70553390D02*
X114607143Y-70553390D01*
X114607143Y-70553390D02*
X114511905Y-70601009D01*
X114511905Y-70601009D02*
X114464286Y-70648628D01*
X114464286Y-70648628D02*
X114416667Y-70743866D01*
X114416667Y-70743866D02*
X114416667Y-70934342D01*
X114416667Y-70934342D02*
X114464286Y-71029580D01*
X114464286Y-71029580D02*
X114511905Y-71077200D01*
X114511905Y-71077200D02*
X114607143Y-71124819D01*
X114607143Y-71124819D02*
X114797619Y-71124819D01*
X114797619Y-71124819D02*
X114892857Y-71077200D01*
X114892857Y-71077200D02*
X114940476Y-71029580D01*
X114940476Y-71029580D02*
X114988095Y-70934342D01*
X114988095Y-70934342D02*
X114988095Y-70743866D01*
X114988095Y-70743866D02*
X114940476Y-70648628D01*
X114940476Y-70648628D02*
X114892857Y-70601009D01*
X114892857Y-70601009D02*
X114797619Y-70553390D01*
X115321429Y-70124819D02*
X115940476Y-70124819D01*
X115940476Y-70124819D02*
X115607143Y-70505771D01*
X115607143Y-70505771D02*
X115750000Y-70505771D01*
X115750000Y-70505771D02*
X115845238Y-70553390D01*
X115845238Y-70553390D02*
X115892857Y-70601009D01*
X115892857Y-70601009D02*
X115940476Y-70696247D01*
X115940476Y-70696247D02*
X115940476Y-70934342D01*
X115940476Y-70934342D02*
X115892857Y-71029580D01*
X115892857Y-71029580D02*
X115845238Y-71077200D01*
X115845238Y-71077200D02*
X115750000Y-71124819D01*
X115750000Y-71124819D02*
X115464286Y-71124819D01*
X115464286Y-71124819D02*
X115369048Y-71077200D01*
X115369048Y-71077200D02*
X115321429Y-71029580D01*
X116273810Y-70124819D02*
X116892857Y-70124819D01*
X116892857Y-70124819D02*
X116559524Y-70505771D01*
X116559524Y-70505771D02*
X116702381Y-70505771D01*
X116702381Y-70505771D02*
X116797619Y-70553390D01*
X116797619Y-70553390D02*
X116845238Y-70601009D01*
X116845238Y-70601009D02*
X116892857Y-70696247D01*
X116892857Y-70696247D02*
X116892857Y-70934342D01*
X116892857Y-70934342D02*
X116845238Y-71029580D01*
X116845238Y-71029580D02*
X116797619Y-71077200D01*
X116797619Y-71077200D02*
X116702381Y-71124819D01*
X116702381Y-71124819D02*
X116416667Y-71124819D01*
X116416667Y-71124819D02*
X116321429Y-71077200D01*
X116321429Y-71077200D02*
X116273810Y-71029580D01*
X134738094Y-95919104D02*
X135214284Y-95919104D01*
X134642856Y-96204819D02*
X134976189Y-95204819D01*
X134976189Y-95204819D02*
X135309522Y-96204819D01*
X135642856Y-95538152D02*
X135642856Y-96204819D01*
X135642856Y-95633390D02*
X135690475Y-95585771D01*
X135690475Y-95585771D02*
X135785713Y-95538152D01*
X135785713Y-95538152D02*
X135928570Y-95538152D01*
X135928570Y-95538152D02*
X136023808Y-95585771D01*
X136023808Y-95585771D02*
X136071427Y-95681009D01*
X136071427Y-95681009D02*
X136071427Y-96204819D01*
X136404761Y-95538152D02*
X136785713Y-95538152D01*
X136547618Y-95204819D02*
X136547618Y-96061961D01*
X136547618Y-96061961D02*
X136595237Y-96157200D01*
X136595237Y-96157200D02*
X136690475Y-96204819D01*
X136690475Y-96204819D02*
X136785713Y-96204819D01*
X137499999Y-96157200D02*
X137404761Y-96204819D01*
X137404761Y-96204819D02*
X137214285Y-96204819D01*
X137214285Y-96204819D02*
X137119047Y-96157200D01*
X137119047Y-96157200D02*
X137071428Y-96061961D01*
X137071428Y-96061961D02*
X137071428Y-95681009D01*
X137071428Y-95681009D02*
X137119047Y-95585771D01*
X137119047Y-95585771D02*
X137214285Y-95538152D01*
X137214285Y-95538152D02*
X137404761Y-95538152D01*
X137404761Y-95538152D02*
X137499999Y-95585771D01*
X137499999Y-95585771D02*
X137547618Y-95681009D01*
X137547618Y-95681009D02*
X137547618Y-95776247D01*
X137547618Y-95776247D02*
X137071428Y-95871485D01*
X137976190Y-95538152D02*
X137976190Y-96204819D01*
X137976190Y-95633390D02*
X138023809Y-95585771D01*
X138023809Y-95585771D02*
X138119047Y-95538152D01*
X138119047Y-95538152D02*
X138261904Y-95538152D01*
X138261904Y-95538152D02*
X138357142Y-95585771D01*
X138357142Y-95585771D02*
X138404761Y-95681009D01*
X138404761Y-95681009D02*
X138404761Y-96204819D01*
X138880952Y-95538152D02*
X138880952Y-96204819D01*
X138880952Y-95633390D02*
X138928571Y-95585771D01*
X138928571Y-95585771D02*
X139023809Y-95538152D01*
X139023809Y-95538152D02*
X139166666Y-95538152D01*
X139166666Y-95538152D02*
X139261904Y-95585771D01*
X139261904Y-95585771D02*
X139309523Y-95681009D01*
X139309523Y-95681009D02*
X139309523Y-96204819D01*
X140214285Y-96204819D02*
X140214285Y-95681009D01*
X140214285Y-95681009D02*
X140166666Y-95585771D01*
X140166666Y-95585771D02*
X140071428Y-95538152D01*
X140071428Y-95538152D02*
X139880952Y-95538152D01*
X139880952Y-95538152D02*
X139785714Y-95585771D01*
X140214285Y-96157200D02*
X140119047Y-96204819D01*
X140119047Y-96204819D02*
X139880952Y-96204819D01*
X139880952Y-96204819D02*
X139785714Y-96157200D01*
X139785714Y-96157200D02*
X139738095Y-96061961D01*
X139738095Y-96061961D02*
X139738095Y-95966723D01*
X139738095Y-95966723D02*
X139785714Y-95871485D01*
X139785714Y-95871485D02*
X139880952Y-95823866D01*
X139880952Y-95823866D02*
X140119047Y-95823866D01*
X140119047Y-95823866D02*
X140214285Y-95776247D01*
X141404762Y-95919104D02*
X141880952Y-95919104D01*
X141309524Y-96204819D02*
X141642857Y-95204819D01*
X141642857Y-95204819D02*
X141976190Y-96204819D01*
X142309524Y-96204819D02*
X142309524Y-95538152D01*
X142309524Y-95728628D02*
X142357143Y-95633390D01*
X142357143Y-95633390D02*
X142404762Y-95585771D01*
X142404762Y-95585771D02*
X142500000Y-95538152D01*
X142500000Y-95538152D02*
X142595238Y-95538152D01*
X143309524Y-96157200D02*
X143214286Y-96204819D01*
X143214286Y-96204819D02*
X143023810Y-96204819D01*
X143023810Y-96204819D02*
X142928572Y-96157200D01*
X142928572Y-96157200D02*
X142880953Y-96061961D01*
X142880953Y-96061961D02*
X142880953Y-95681009D01*
X142880953Y-95681009D02*
X142928572Y-95585771D01*
X142928572Y-95585771D02*
X143023810Y-95538152D01*
X143023810Y-95538152D02*
X143214286Y-95538152D01*
X143214286Y-95538152D02*
X143309524Y-95585771D01*
X143309524Y-95585771D02*
X143357143Y-95681009D01*
X143357143Y-95681009D02*
X143357143Y-95776247D01*
X143357143Y-95776247D02*
X142880953Y-95871485D01*
X144214286Y-96204819D02*
X144214286Y-95681009D01*
X144214286Y-95681009D02*
X144166667Y-95585771D01*
X144166667Y-95585771D02*
X144071429Y-95538152D01*
X144071429Y-95538152D02*
X143880953Y-95538152D01*
X143880953Y-95538152D02*
X143785715Y-95585771D01*
X144214286Y-96157200D02*
X144119048Y-96204819D01*
X144119048Y-96204819D02*
X143880953Y-96204819D01*
X143880953Y-96204819D02*
X143785715Y-96157200D01*
X143785715Y-96157200D02*
X143738096Y-96061961D01*
X143738096Y-96061961D02*
X143738096Y-95966723D01*
X143738096Y-95966723D02*
X143785715Y-95871485D01*
X143785715Y-95871485D02*
X143880953Y-95823866D01*
X143880953Y-95823866D02*
X144119048Y-95823866D01*
X144119048Y-95823866D02*
X144214286Y-95776247D01*
X136583333Y-85029580D02*
X136535714Y-85077200D01*
X136535714Y-85077200D02*
X136392857Y-85124819D01*
X136392857Y-85124819D02*
X136297619Y-85124819D01*
X136297619Y-85124819D02*
X136154762Y-85077200D01*
X136154762Y-85077200D02*
X136059524Y-84981961D01*
X136059524Y-84981961D02*
X136011905Y-84886723D01*
X136011905Y-84886723D02*
X135964286Y-84696247D01*
X135964286Y-84696247D02*
X135964286Y-84553390D01*
X135964286Y-84553390D02*
X136011905Y-84362914D01*
X136011905Y-84362914D02*
X136059524Y-84267676D01*
X136059524Y-84267676D02*
X136154762Y-84172438D01*
X136154762Y-84172438D02*
X136297619Y-84124819D01*
X136297619Y-84124819D02*
X136392857Y-84124819D01*
X136392857Y-84124819D02*
X136535714Y-84172438D01*
X136535714Y-84172438D02*
X136583333Y-84220057D01*
X137440476Y-84458152D02*
X137440476Y-85124819D01*
X137202381Y-84077200D02*
X136964286Y-84791485D01*
X136964286Y-84791485D02*
X137583333Y-84791485D01*
X120733333Y-92719580D02*
X120685714Y-92767200D01*
X120685714Y-92767200D02*
X120542857Y-92814819D01*
X120542857Y-92814819D02*
X120447619Y-92814819D01*
X120447619Y-92814819D02*
X120304762Y-92767200D01*
X120304762Y-92767200D02*
X120209524Y-92671961D01*
X120209524Y-92671961D02*
X120161905Y-92576723D01*
X120161905Y-92576723D02*
X120114286Y-92386247D01*
X120114286Y-92386247D02*
X120114286Y-92243390D01*
X120114286Y-92243390D02*
X120161905Y-92052914D01*
X120161905Y-92052914D02*
X120209524Y-91957676D01*
X120209524Y-91957676D02*
X120304762Y-91862438D01*
X120304762Y-91862438D02*
X120447619Y-91814819D01*
X120447619Y-91814819D02*
X120542857Y-91814819D01*
X120542857Y-91814819D02*
X120685714Y-91862438D01*
X120685714Y-91862438D02*
X120733333Y-91910057D01*
X121590476Y-91814819D02*
X121400000Y-91814819D01*
X121400000Y-91814819D02*
X121304762Y-91862438D01*
X121304762Y-91862438D02*
X121257143Y-91910057D01*
X121257143Y-91910057D02*
X121161905Y-92052914D01*
X121161905Y-92052914D02*
X121114286Y-92243390D01*
X121114286Y-92243390D02*
X121114286Y-92624342D01*
X121114286Y-92624342D02*
X121161905Y-92719580D01*
X121161905Y-92719580D02*
X121209524Y-92767200D01*
X121209524Y-92767200D02*
X121304762Y-92814819D01*
X121304762Y-92814819D02*
X121495238Y-92814819D01*
X121495238Y-92814819D02*
X121590476Y-92767200D01*
X121590476Y-92767200D02*
X121638095Y-92719580D01*
X121638095Y-92719580D02*
X121685714Y-92624342D01*
X121685714Y-92624342D02*
X121685714Y-92386247D01*
X121685714Y-92386247D02*
X121638095Y-92291009D01*
X121638095Y-92291009D02*
X121590476Y-92243390D01*
X121590476Y-92243390D02*
X121495238Y-92195771D01*
X121495238Y-92195771D02*
X121304762Y-92195771D01*
X121304762Y-92195771D02*
X121209524Y-92243390D01*
X121209524Y-92243390D02*
X121161905Y-92291009D01*
X121161905Y-92291009D02*
X121114286Y-92386247D01*
D11*
%TO.C,U2*%
X135840000Y-67760000D02*
X137100000Y-67760000D01*
X135840000Y-71520000D02*
X135840000Y-67760000D01*
X142660000Y-67760000D02*
X141400000Y-67760000D01*
X142660000Y-71520000D02*
X142660000Y-67760000D01*
X135940000Y-72800000D02*
X135610000Y-73040000D01*
X135610000Y-72560000D01*
X135940000Y-72800000D01*
G36*
X135940000Y-72800000D02*
G01*
X135610000Y-73040000D01*
X135610000Y-72560000D01*
X135940000Y-72800000D01*
G37*
%TO.C,C2*%
X144680000Y-81940000D02*
X144680000Y-77400000D01*
X144736000Y-81940000D02*
X144680000Y-81940000D01*
X146764000Y-77400000D02*
X146820000Y-77400000D01*
X146820000Y-77400000D02*
X146820000Y-81940000D01*
%TO.C,Power*%
X112040000Y-98090000D02*
X112040000Y-97934000D01*
X112040000Y-100406000D02*
X112040000Y-100250000D01*
X108808563Y-98090000D02*
G75*
G02*
X112040000Y-97934484I1671437J-1080000D01*
G01*
X109439039Y-98090000D02*
G75*
G02*
X111520961Y-98090000I1040961J-1080000D01*
G01*
X111520961Y-100250000D02*
G75*
G02*
X109439039Y-100250000I-1040961J1080000D01*
G01*
X112040000Y-100405516D02*
G75*
G02*
X108808563Y-100250000I-1560000J1235516D01*
G01*
%TO.C,R4*%
X122210000Y-124170000D02*
X122980000Y-124170000D01*
X130290000Y-124170000D02*
X129520000Y-124170000D01*
X122980000Y-122800000D02*
X129520000Y-122800000D01*
X129520000Y-125540000D01*
X122980000Y-125540000D01*
X122980000Y-122800000D01*
%TO.C,C1*%
X140210000Y-79670000D02*
X138670000Y-79670000D01*
X140210000Y-79710000D02*
X138670000Y-79710000D01*
X140210000Y-79750000D02*
X138671000Y-79750000D01*
X140210000Y-79790000D02*
X138673000Y-79790000D01*
X140210000Y-79830000D02*
X138675000Y-79830000D01*
X140210000Y-79870000D02*
X138678000Y-79870000D01*
X140210000Y-79910000D02*
X138681000Y-79910000D01*
X140210000Y-79950000D02*
X138685000Y-79950000D01*
X140210000Y-79990000D02*
X138690000Y-79990000D01*
X140210000Y-80030000D02*
X138695000Y-80030000D01*
X140210000Y-80070000D02*
X138701000Y-80070000D01*
X140210000Y-80110000D02*
X138707000Y-80110000D01*
X140210000Y-80150000D02*
X138714000Y-80150000D01*
X140210000Y-80190000D02*
X138722000Y-80190000D01*
X140210000Y-80230000D02*
X138731000Y-80230000D01*
X140210000Y-80270000D02*
X138740000Y-80270000D01*
X140210000Y-80310000D02*
X138749000Y-80310000D01*
X140210000Y-80350000D02*
X138760000Y-80350000D01*
X140210000Y-80390000D02*
X138771000Y-80390000D01*
X140210000Y-80430000D02*
X138783000Y-80430000D01*
X140210000Y-80470000D02*
X138795000Y-80470000D01*
X140210000Y-80510000D02*
X138808000Y-80510000D01*
X140210000Y-80550000D02*
X138822000Y-80550000D01*
X140210000Y-80590000D02*
X138837000Y-80590000D01*
X140210000Y-80630000D02*
X138852000Y-80630000D01*
X140210000Y-80670000D02*
X138868000Y-80670000D01*
X140210000Y-80710000D02*
X138885000Y-80710000D01*
X140210000Y-80750000D02*
X138903000Y-80750000D01*
X140210000Y-80790000D02*
X138921000Y-80790000D01*
X140210000Y-80830000D02*
X138941000Y-80830000D01*
X140210000Y-80870000D02*
X138961000Y-80870000D01*
X140210000Y-80910000D02*
X138982000Y-80910000D01*
X140210000Y-80950000D02*
X139004000Y-80950000D01*
X140210000Y-80990000D02*
X139027000Y-80990000D01*
X140210000Y-81030000D02*
X139051000Y-81030000D01*
X140210000Y-81070000D02*
X139075000Y-81070000D01*
X140210000Y-81110000D02*
X139101000Y-81110000D01*
X140210000Y-81150000D02*
X139128000Y-81150000D01*
X140210000Y-81190000D02*
X139156000Y-81190000D01*
X140210000Y-81230000D02*
X139185000Y-81230000D01*
X140210000Y-81270000D02*
X139215000Y-81270000D01*
X140210000Y-81310000D02*
X139247000Y-81310000D01*
X140210000Y-81350000D02*
X139280000Y-81350000D01*
X140210000Y-81390000D02*
X139314000Y-81390000D01*
X140210000Y-81430000D02*
X139349000Y-81430000D01*
X140210000Y-81470000D02*
X139386000Y-81470000D01*
X140210000Y-81510000D02*
X139425000Y-81510000D01*
X140210000Y-81550000D02*
X139465000Y-81550000D01*
X140210000Y-81590000D02*
X139507000Y-81590000D01*
X140210000Y-81630000D02*
X139551000Y-81630000D01*
X140210000Y-81670000D02*
X139598000Y-81670000D01*
X141533000Y-82270000D02*
X140967000Y-82270000D01*
X141767000Y-82230000D02*
X140733000Y-82230000D01*
X141927000Y-82190000D02*
X140573000Y-82190000D01*
X142055000Y-82150000D02*
X140445000Y-82150000D01*
X142164000Y-82110000D02*
X140336000Y-82110000D01*
X142261000Y-82070000D02*
X140239000Y-82070000D01*
X142348000Y-82030000D02*
X140152000Y-82030000D01*
X142427000Y-81990000D02*
X140073000Y-81990000D01*
X142501000Y-81950000D02*
X139999000Y-81950000D01*
X142569000Y-81910000D02*
X139931000Y-81910000D01*
X142633000Y-81870000D02*
X139867000Y-81870000D01*
X142693000Y-81830000D02*
X139807000Y-81830000D01*
X142725000Y-76865225D02*
X142725000Y-77365225D01*
X142749000Y-81790000D02*
X139751000Y-81790000D01*
X142803000Y-81750000D02*
X139697000Y-81750000D01*
X142854000Y-81710000D02*
X139646000Y-81710000D01*
X142902000Y-81670000D02*
X142290000Y-81670000D01*
X142949000Y-81630000D02*
X142290000Y-81630000D01*
X142975000Y-77115225D02*
X142475000Y-77115225D01*
X142993000Y-81590000D02*
X142290000Y-81590000D01*
X143035000Y-81550000D02*
X142290000Y-81550000D01*
X143075000Y-81510000D02*
X142290000Y-81510000D01*
X143114000Y-81470000D02*
X142290000Y-81470000D01*
X143151000Y-81430000D02*
X142290000Y-81430000D01*
X143186000Y-81390000D02*
X142290000Y-81390000D01*
X143220000Y-81350000D02*
X142290000Y-81350000D01*
X143253000Y-81310000D02*
X142290000Y-81310000D01*
X143285000Y-81270000D02*
X142290000Y-81270000D01*
X143315000Y-81230000D02*
X142290000Y-81230000D01*
X143344000Y-81190000D02*
X142290000Y-81190000D01*
X143372000Y-81150000D02*
X142290000Y-81150000D01*
X143399000Y-81110000D02*
X142290000Y-81110000D01*
X143425000Y-81070000D02*
X142290000Y-81070000D01*
X143449000Y-81030000D02*
X142290000Y-81030000D01*
X143473000Y-80990000D02*
X142290000Y-80990000D01*
X143496000Y-80950000D02*
X142290000Y-80950000D01*
X143518000Y-80910000D02*
X142290000Y-80910000D01*
X143539000Y-80870000D02*
X142290000Y-80870000D01*
X143559000Y-80830000D02*
X142290000Y-80830000D01*
X143579000Y-80790000D02*
X142290000Y-80790000D01*
X143597000Y-80750000D02*
X142290000Y-80750000D01*
X143615000Y-80710000D02*
X142290000Y-80710000D01*
X143632000Y-80670000D02*
X142290000Y-80670000D01*
X143648000Y-80630000D02*
X142290000Y-80630000D01*
X143663000Y-80590000D02*
X142290000Y-80590000D01*
X143678000Y-80550000D02*
X142290000Y-80550000D01*
X143692000Y-80510000D02*
X142290000Y-80510000D01*
X143705000Y-80470000D02*
X142290000Y-80470000D01*
X143717000Y-80430000D02*
X142290000Y-80430000D01*
X143729000Y-80390000D02*
X142290000Y-80390000D01*
X143740000Y-80350000D02*
X142290000Y-80350000D01*
X143751000Y-80310000D02*
X142290000Y-80310000D01*
X143760000Y-80270000D02*
X142290000Y-80270000D01*
X143769000Y-80230000D02*
X142290000Y-80230000D01*
X143778000Y-80190000D02*
X142290000Y-80190000D01*
X143786000Y-80150000D02*
X142290000Y-80150000D01*
X143793000Y-80110000D02*
X142290000Y-80110000D01*
X143799000Y-80070000D02*
X142290000Y-80070000D01*
X143805000Y-80030000D02*
X142290000Y-80030000D01*
X143810000Y-79990000D02*
X142290000Y-79990000D01*
X143815000Y-79950000D02*
X142290000Y-79950000D01*
X143819000Y-79910000D02*
X142290000Y-79910000D01*
X143822000Y-79870000D02*
X142290000Y-79870000D01*
X143825000Y-79830000D02*
X142290000Y-79830000D01*
X143827000Y-79790000D02*
X142290000Y-79790000D01*
X143829000Y-79750000D02*
X142290000Y-79750000D01*
X143830000Y-79670000D02*
X142290000Y-79670000D01*
X143830000Y-79710000D02*
X142290000Y-79710000D01*
X143870000Y-79670000D02*
G75*
G02*
X138630000Y-79670000I-2620000J0D01*
G01*
X138630000Y-79670000D02*
G75*
G02*
X143870000Y-79670000I2620000J0D01*
G01*
%TO.C,Battery*%
X146370000Y-71675000D02*
X146370000Y-69025000D01*
X149130000Y-69025000D02*
X146370000Y-69025000D01*
X149130000Y-71675000D02*
X146370000Y-71675000D01*
X149130000Y-71675000D02*
X149130000Y-69025000D01*
X149130000Y-72945000D02*
X149130000Y-74325000D01*
X149130000Y-74325000D02*
X147750000Y-74325000D01*
%TO.C,SN1*%
X65370000Y-104100000D02*
X65370000Y-78590000D01*
X68130000Y-78590000D02*
X65370000Y-78590000D01*
X68130000Y-104100000D02*
X65370000Y-104100000D01*
X68130000Y-104100000D02*
X68130000Y-78590000D01*
X68130000Y-105370000D02*
X68130000Y-106750000D01*
X68130000Y-106750000D02*
X66750000Y-106750000D01*
%TO.C,C5*%
X122820000Y-98820000D02*
X124360000Y-98820000D01*
X122820000Y-98860000D02*
X124360000Y-98860000D01*
X122821000Y-98780000D02*
X124360000Y-98780000D01*
X122823000Y-98740000D02*
X124360000Y-98740000D01*
X122825000Y-98700000D02*
X124360000Y-98700000D01*
X122828000Y-98660000D02*
X124360000Y-98660000D01*
X122831000Y-98620000D02*
X124360000Y-98620000D01*
X122835000Y-98580000D02*
X124360000Y-98580000D01*
X122840000Y-98540000D02*
X124360000Y-98540000D01*
X122845000Y-98500000D02*
X124360000Y-98500000D01*
X122851000Y-98460000D02*
X124360000Y-98460000D01*
X122857000Y-98420000D02*
X124360000Y-98420000D01*
X122864000Y-98380000D02*
X124360000Y-98380000D01*
X122872000Y-98340000D02*
X124360000Y-98340000D01*
X122881000Y-98300000D02*
X124360000Y-98300000D01*
X122890000Y-98260000D02*
X124360000Y-98260000D01*
X122899000Y-98220000D02*
X124360000Y-98220000D01*
X122910000Y-98180000D02*
X124360000Y-98180000D01*
X122921000Y-98140000D02*
X124360000Y-98140000D01*
X122933000Y-98100000D02*
X124360000Y-98100000D01*
X122945000Y-98060000D02*
X124360000Y-98060000D01*
X122958000Y-98020000D02*
X124360000Y-98020000D01*
X122972000Y-97980000D02*
X124360000Y-97980000D01*
X122987000Y-97940000D02*
X124360000Y-97940000D01*
X123002000Y-97900000D02*
X124360000Y-97900000D01*
X123018000Y-97860000D02*
X124360000Y-97860000D01*
X123035000Y-97820000D02*
X124360000Y-97820000D01*
X123053000Y-97780000D02*
X124360000Y-97780000D01*
X123071000Y-97740000D02*
X124360000Y-97740000D01*
X123091000Y-97700000D02*
X124360000Y-97700000D01*
X123111000Y-97660000D02*
X124360000Y-97660000D01*
X123132000Y-97620000D02*
X124360000Y-97620000D01*
X123154000Y-97580000D02*
X124360000Y-97580000D01*
X123177000Y-97540000D02*
X124360000Y-97540000D01*
X123201000Y-97500000D02*
X124360000Y-97500000D01*
X123225000Y-97460000D02*
X124360000Y-97460000D01*
X123251000Y-97420000D02*
X124360000Y-97420000D01*
X123278000Y-97380000D02*
X124360000Y-97380000D01*
X123306000Y-97340000D02*
X124360000Y-97340000D01*
X123335000Y-97300000D02*
X124360000Y-97300000D01*
X123365000Y-97260000D02*
X124360000Y-97260000D01*
X123397000Y-97220000D02*
X124360000Y-97220000D01*
X123430000Y-97180000D02*
X124360000Y-97180000D01*
X123464000Y-97140000D02*
X124360000Y-97140000D01*
X123499000Y-97100000D02*
X124360000Y-97100000D01*
X123536000Y-97060000D02*
X124360000Y-97060000D01*
X123575000Y-97020000D02*
X124360000Y-97020000D01*
X123615000Y-96980000D02*
X124360000Y-96980000D01*
X123657000Y-96940000D02*
X124360000Y-96940000D01*
X123675000Y-101414775D02*
X124175000Y-101414775D01*
X123701000Y-96900000D02*
X124360000Y-96900000D01*
X123748000Y-96860000D02*
X124360000Y-96860000D01*
X123796000Y-96820000D02*
X127004000Y-96820000D01*
X123847000Y-96780000D02*
X126953000Y-96780000D01*
X123901000Y-96740000D02*
X126899000Y-96740000D01*
X123925000Y-101664775D02*
X123925000Y-101164775D01*
X123957000Y-96700000D02*
X126843000Y-96700000D01*
X124017000Y-96660000D02*
X126783000Y-96660000D01*
X124081000Y-96620000D02*
X126719000Y-96620000D01*
X124149000Y-96580000D02*
X126651000Y-96580000D01*
X124223000Y-96540000D02*
X126577000Y-96540000D01*
X124302000Y-96500000D02*
X126498000Y-96500000D01*
X124389000Y-96460000D02*
X126411000Y-96460000D01*
X124486000Y-96420000D02*
X126314000Y-96420000D01*
X124595000Y-96380000D02*
X126205000Y-96380000D01*
X124723000Y-96340000D02*
X126077000Y-96340000D01*
X124883000Y-96300000D02*
X125917000Y-96300000D01*
X125117000Y-96260000D02*
X125683000Y-96260000D01*
X126440000Y-96860000D02*
X127052000Y-96860000D01*
X126440000Y-96900000D02*
X127099000Y-96900000D01*
X126440000Y-96940000D02*
X127143000Y-96940000D01*
X126440000Y-96980000D02*
X127185000Y-96980000D01*
X126440000Y-97020000D02*
X127225000Y-97020000D01*
X126440000Y-97060000D02*
X127264000Y-97060000D01*
X126440000Y-97100000D02*
X127301000Y-97100000D01*
X126440000Y-97140000D02*
X127336000Y-97140000D01*
X126440000Y-97180000D02*
X127370000Y-97180000D01*
X126440000Y-97220000D02*
X127403000Y-97220000D01*
X126440000Y-97260000D02*
X127435000Y-97260000D01*
X126440000Y-97300000D02*
X127465000Y-97300000D01*
X126440000Y-97340000D02*
X127494000Y-97340000D01*
X126440000Y-97380000D02*
X127522000Y-97380000D01*
X126440000Y-97420000D02*
X127549000Y-97420000D01*
X126440000Y-97460000D02*
X127575000Y-97460000D01*
X126440000Y-97500000D02*
X127599000Y-97500000D01*
X126440000Y-97540000D02*
X127623000Y-97540000D01*
X126440000Y-97580000D02*
X127646000Y-97580000D01*
X126440000Y-97620000D02*
X127668000Y-97620000D01*
X126440000Y-97660000D02*
X127689000Y-97660000D01*
X126440000Y-97700000D02*
X127709000Y-97700000D01*
X126440000Y-97740000D02*
X127729000Y-97740000D01*
X126440000Y-97780000D02*
X127747000Y-97780000D01*
X126440000Y-97820000D02*
X127765000Y-97820000D01*
X126440000Y-97860000D02*
X127782000Y-97860000D01*
X126440000Y-97900000D02*
X127798000Y-97900000D01*
X126440000Y-97940000D02*
X127813000Y-97940000D01*
X126440000Y-97980000D02*
X127828000Y-97980000D01*
X126440000Y-98020000D02*
X127842000Y-98020000D01*
X126440000Y-98060000D02*
X127855000Y-98060000D01*
X126440000Y-98100000D02*
X127867000Y-98100000D01*
X126440000Y-98140000D02*
X127879000Y-98140000D01*
X126440000Y-98180000D02*
X127890000Y-98180000D01*
X126440000Y-98220000D02*
X127901000Y-98220000D01*
X126440000Y-98260000D02*
X127910000Y-98260000D01*
X126440000Y-98300000D02*
X127919000Y-98300000D01*
X126440000Y-98340000D02*
X127928000Y-98340000D01*
X126440000Y-98380000D02*
X127936000Y-98380000D01*
X126440000Y-98420000D02*
X127943000Y-98420000D01*
X126440000Y-98460000D02*
X127949000Y-98460000D01*
X126440000Y-98500000D02*
X127955000Y-98500000D01*
X126440000Y-98540000D02*
X127960000Y-98540000D01*
X126440000Y-98580000D02*
X127965000Y-98580000D01*
X126440000Y-98620000D02*
X127969000Y-98620000D01*
X126440000Y-98660000D02*
X127972000Y-98660000D01*
X126440000Y-98700000D02*
X127975000Y-98700000D01*
X126440000Y-98740000D02*
X127977000Y-98740000D01*
X126440000Y-98780000D02*
X127979000Y-98780000D01*
X126440000Y-98820000D02*
X127980000Y-98820000D01*
X126440000Y-98860000D02*
X127980000Y-98860000D01*
X128020000Y-98860000D02*
G75*
G02*
X122780000Y-98860000I-2620000J0D01*
G01*
X122780000Y-98860000D02*
G75*
G02*
X128020000Y-98860000I2620000J0D01*
G01*
%TO.C,C7*%
X115680000Y-100440000D02*
X115680000Y-95900000D01*
X115736000Y-100440000D02*
X115680000Y-100440000D01*
X117764000Y-95900000D02*
X117820000Y-95900000D01*
X117820000Y-95900000D02*
X117820000Y-100440000D01*
%TO.C,J1*%
X97420000Y-65400000D02*
X97420000Y-78160000D01*
X97420000Y-65400000D02*
X100080000Y-65400000D01*
X97420000Y-78160000D02*
X100080000Y-78160000D01*
X98750000Y-62800000D02*
X100080000Y-62800000D01*
X100080000Y-62800000D02*
X100080000Y-64130000D01*
X100080000Y-65400000D02*
X100080000Y-78160000D01*
%TO.C,R1*%
X114630000Y-109170000D02*
X115400000Y-109170000D01*
X122710000Y-109170000D02*
X121940000Y-109170000D01*
X121940000Y-110540000D02*
X115400000Y-110540000D01*
X115400000Y-107800000D01*
X121940000Y-107800000D01*
X121940000Y-110540000D01*
%TO.C,Boot*%
X93250000Y-99920000D02*
X93250000Y-101420000D01*
X94500000Y-103920000D02*
X99000000Y-103920000D01*
X99000000Y-97420000D02*
X94500000Y-97420000D01*
X100250000Y-101420000D02*
X100250000Y-99920000D01*
%TO.C,C3*%
X131210000Y-79670000D02*
X129670000Y-79670000D01*
X131210000Y-79710000D02*
X129670000Y-79710000D01*
X131210000Y-79750000D02*
X129671000Y-79750000D01*
X131210000Y-79790000D02*
X129673000Y-79790000D01*
X131210000Y-79830000D02*
X129675000Y-79830000D01*
X131210000Y-79870000D02*
X129678000Y-79870000D01*
X131210000Y-79910000D02*
X129681000Y-79910000D01*
X131210000Y-79950000D02*
X129685000Y-79950000D01*
X131210000Y-79990000D02*
X129690000Y-79990000D01*
X131210000Y-80030000D02*
X129695000Y-80030000D01*
X131210000Y-80070000D02*
X129701000Y-80070000D01*
X131210000Y-80110000D02*
X129707000Y-80110000D01*
X131210000Y-80150000D02*
X129714000Y-80150000D01*
X131210000Y-80190000D02*
X129722000Y-80190000D01*
X131210000Y-80230000D02*
X129731000Y-80230000D01*
X131210000Y-80270000D02*
X129740000Y-80270000D01*
X131210000Y-80310000D02*
X129749000Y-80310000D01*
X131210000Y-80350000D02*
X129760000Y-80350000D01*
X131210000Y-80390000D02*
X129771000Y-80390000D01*
X131210000Y-80430000D02*
X129783000Y-80430000D01*
X131210000Y-80470000D02*
X129795000Y-80470000D01*
X131210000Y-80510000D02*
X129808000Y-80510000D01*
X131210000Y-80550000D02*
X129822000Y-80550000D01*
X131210000Y-80590000D02*
X129837000Y-80590000D01*
X131210000Y-80630000D02*
X129852000Y-80630000D01*
X131210000Y-80670000D02*
X129868000Y-80670000D01*
X131210000Y-80710000D02*
X129885000Y-80710000D01*
X131210000Y-80750000D02*
X129903000Y-80750000D01*
X131210000Y-80790000D02*
X129921000Y-80790000D01*
X131210000Y-80830000D02*
X129941000Y-80830000D01*
X131210000Y-80870000D02*
X129961000Y-80870000D01*
X131210000Y-80910000D02*
X129982000Y-80910000D01*
X131210000Y-80950000D02*
X130004000Y-80950000D01*
X131210000Y-80990000D02*
X130027000Y-80990000D01*
X131210000Y-81030000D02*
X130051000Y-81030000D01*
X131210000Y-81070000D02*
X130075000Y-81070000D01*
X131210000Y-81110000D02*
X130101000Y-81110000D01*
X131210000Y-81150000D02*
X130128000Y-81150000D01*
X131210000Y-81190000D02*
X130156000Y-81190000D01*
X131210000Y-81230000D02*
X130185000Y-81230000D01*
X131210000Y-81270000D02*
X130215000Y-81270000D01*
X131210000Y-81310000D02*
X130247000Y-81310000D01*
X131210000Y-81350000D02*
X130280000Y-81350000D01*
X131210000Y-81390000D02*
X130314000Y-81390000D01*
X131210000Y-81430000D02*
X130349000Y-81430000D01*
X131210000Y-81470000D02*
X130386000Y-81470000D01*
X131210000Y-81510000D02*
X130425000Y-81510000D01*
X131210000Y-81550000D02*
X130465000Y-81550000D01*
X131210000Y-81590000D02*
X130507000Y-81590000D01*
X131210000Y-81630000D02*
X130551000Y-81630000D01*
X131210000Y-81670000D02*
X130598000Y-81670000D01*
X132533000Y-82270000D02*
X131967000Y-82270000D01*
X132767000Y-82230000D02*
X131733000Y-82230000D01*
X132927000Y-82190000D02*
X131573000Y-82190000D01*
X133055000Y-82150000D02*
X131445000Y-82150000D01*
X133164000Y-82110000D02*
X131336000Y-82110000D01*
X133261000Y-82070000D02*
X131239000Y-82070000D01*
X133348000Y-82030000D02*
X131152000Y-82030000D01*
X133427000Y-81990000D02*
X131073000Y-81990000D01*
X133501000Y-81950000D02*
X130999000Y-81950000D01*
X133569000Y-81910000D02*
X130931000Y-81910000D01*
X133633000Y-81870000D02*
X130867000Y-81870000D01*
X133693000Y-81830000D02*
X130807000Y-81830000D01*
X133725000Y-76865225D02*
X133725000Y-77365225D01*
X133749000Y-81790000D02*
X130751000Y-81790000D01*
X133803000Y-81750000D02*
X130697000Y-81750000D01*
X133854000Y-81710000D02*
X130646000Y-81710000D01*
X133902000Y-81670000D02*
X133290000Y-81670000D01*
X133949000Y-81630000D02*
X133290000Y-81630000D01*
X133975000Y-77115225D02*
X133475000Y-77115225D01*
X133993000Y-81590000D02*
X133290000Y-81590000D01*
X134035000Y-81550000D02*
X133290000Y-81550000D01*
X134075000Y-81510000D02*
X133290000Y-81510000D01*
X134114000Y-81470000D02*
X133290000Y-81470000D01*
X134151000Y-81430000D02*
X133290000Y-81430000D01*
X134186000Y-81390000D02*
X133290000Y-81390000D01*
X134220000Y-81350000D02*
X133290000Y-81350000D01*
X134253000Y-81310000D02*
X133290000Y-81310000D01*
X134285000Y-81270000D02*
X133290000Y-81270000D01*
X134315000Y-81230000D02*
X133290000Y-81230000D01*
X134344000Y-81190000D02*
X133290000Y-81190000D01*
X134372000Y-81150000D02*
X133290000Y-81150000D01*
X134399000Y-81110000D02*
X133290000Y-81110000D01*
X134425000Y-81070000D02*
X133290000Y-81070000D01*
X134449000Y-81030000D02*
X133290000Y-81030000D01*
X134473000Y-80990000D02*
X133290000Y-80990000D01*
X134496000Y-80950000D02*
X133290000Y-80950000D01*
X134518000Y-80910000D02*
X133290000Y-80910000D01*
X134539000Y-80870000D02*
X133290000Y-80870000D01*
X134559000Y-80830000D02*
X133290000Y-80830000D01*
X134579000Y-80790000D02*
X133290000Y-80790000D01*
X134597000Y-80750000D02*
X133290000Y-80750000D01*
X134615000Y-80710000D02*
X133290000Y-80710000D01*
X134632000Y-80670000D02*
X133290000Y-80670000D01*
X134648000Y-80630000D02*
X133290000Y-80630000D01*
X134663000Y-80590000D02*
X133290000Y-80590000D01*
X134678000Y-80550000D02*
X133290000Y-80550000D01*
X134692000Y-80510000D02*
X133290000Y-80510000D01*
X134705000Y-80470000D02*
X133290000Y-80470000D01*
X134717000Y-80430000D02*
X133290000Y-80430000D01*
X134729000Y-80390000D02*
X133290000Y-80390000D01*
X134740000Y-80350000D02*
X133290000Y-80350000D01*
X134751000Y-80310000D02*
X133290000Y-80310000D01*
X134760000Y-80270000D02*
X133290000Y-80270000D01*
X134769000Y-80230000D02*
X133290000Y-80230000D01*
X134778000Y-80190000D02*
X133290000Y-80190000D01*
X134786000Y-80150000D02*
X133290000Y-80150000D01*
X134793000Y-80110000D02*
X133290000Y-80110000D01*
X134799000Y-80070000D02*
X133290000Y-80070000D01*
X134805000Y-80030000D02*
X133290000Y-80030000D01*
X134810000Y-79990000D02*
X133290000Y-79990000D01*
X134815000Y-79950000D02*
X133290000Y-79950000D01*
X134819000Y-79910000D02*
X133290000Y-79910000D01*
X134822000Y-79870000D02*
X133290000Y-79870000D01*
X134825000Y-79830000D02*
X133290000Y-79830000D01*
X134827000Y-79790000D02*
X133290000Y-79790000D01*
X134829000Y-79750000D02*
X133290000Y-79750000D01*
X134830000Y-79670000D02*
X133290000Y-79670000D01*
X134830000Y-79710000D02*
X133290000Y-79710000D01*
X134870000Y-79670000D02*
G75*
G02*
X129630000Y-79670000I-2620000J0D01*
G01*
X129630000Y-79670000D02*
G75*
G02*
X134870000Y-79670000I2620000J0D01*
G01*
%TO.C,R2*%
X114630000Y-105670000D02*
X115400000Y-105670000D01*
X122710000Y-105670000D02*
X121940000Y-105670000D01*
X121940000Y-107040000D02*
X115400000Y-107040000D01*
X115400000Y-104300000D01*
X121940000Y-104300000D01*
X121940000Y-107040000D01*
%TO.C,USB Vcc Bat.*%
X104370000Y-51790000D02*
X104370000Y-54550000D01*
X109560000Y-51790000D02*
X104370000Y-51790000D01*
X109560000Y-51790000D02*
X109560000Y-54550000D01*
X109560000Y-54550000D02*
X104370000Y-54550000D01*
X110830000Y-51790000D02*
X112210000Y-51790000D01*
X112210000Y-51790000D02*
X112210000Y-53170000D01*
%TO.C,Start/Stop*%
X103750000Y-133420000D02*
X103750000Y-134920000D01*
X105000000Y-137420000D02*
X109500000Y-137420000D01*
X109500000Y-130920000D02*
X105000000Y-130920000D01*
X110750000Y-134920000D02*
X110750000Y-133420000D01*
%TO.C,Wifi*%
X117185000Y-133125000D02*
X117185000Y-136215000D01*
X117185000Y-133125170D02*
G75*
G02*
X122735000Y-134670000I2560000J-1544830D01*
G01*
X122735000Y-134670000D02*
G75*
G02*
X117185000Y-136214830I-2990000J0D01*
G01*
X122245000Y-134670000D02*
G75*
G02*
X117245000Y-134670000I-2500000J0D01*
G01*
X117245000Y-134670000D02*
G75*
G02*
X122245000Y-134670000I2500000J0D01*
G01*
D12*
%TO.C,M1*%
X128200000Y-142630000D02*
X128200000Y-133630000D01*
X128200000Y-142630000D02*
X156200000Y-142630000D01*
X134200000Y-123630000D02*
X134200000Y-133630000D01*
X134200000Y-133630000D02*
X128200000Y-133630000D01*
X136200000Y-123630000D02*
X134200000Y-123630000D01*
X136200000Y-123630000D02*
X148200000Y-123630000D01*
X150200000Y-123630000D02*
X148200000Y-123630000D01*
X150200000Y-123630000D02*
X150200000Y-133630000D01*
X150200000Y-133630000D02*
X156200000Y-133630000D01*
X156200000Y-142630000D02*
X156200000Y-133630000D01*
D11*
%TO.C,Reset*%
X93500000Y-88670000D02*
X93500000Y-90170000D01*
X94750000Y-92670000D02*
X99250000Y-92670000D01*
X99250000Y-86170000D02*
X94750000Y-86170000D01*
X100500000Y-90170000D02*
X100500000Y-88670000D01*
%TO.C,R3*%
X122210000Y-128170000D02*
X122980000Y-128170000D01*
X130290000Y-128170000D02*
X129520000Y-128170000D01*
X122980000Y-126800000D02*
X129520000Y-126800000D01*
X129520000Y-129540000D01*
X122980000Y-129540000D01*
X122980000Y-126800000D01*
%TO.C,DRV8833*%
D12*
X105877500Y-62911250D02*
X124127500Y-62911250D01*
X124127500Y-78161250D01*
X105877500Y-78161250D01*
X105877500Y-62911250D01*
D11*
%TO.C,U1*%
X130500000Y-92750000D02*
X130500000Y-99500000D01*
X130500000Y-92750000D02*
X148500000Y-92750000D01*
X130500000Y-117500000D02*
X130500000Y-118250000D01*
X130500000Y-118250000D02*
X131500000Y-118250000D01*
X148500000Y-92750000D02*
X148500000Y-99500000D01*
X148500000Y-98690000D02*
X130500000Y-98690000D01*
X148500000Y-117500000D02*
X148500000Y-118250000D01*
X148500000Y-118250000D02*
X147500000Y-118250000D01*
D12*
%TO.C,M2*%
X128200000Y-42720000D02*
X128200000Y-51720000D01*
X134200000Y-51720000D02*
X128200000Y-51720000D01*
X134200000Y-61720000D02*
X134200000Y-51720000D01*
X134200000Y-61720000D02*
X136200000Y-61720000D01*
X148200000Y-61720000D02*
X136200000Y-61720000D01*
X148200000Y-61720000D02*
X150200000Y-61720000D01*
X150200000Y-51720000D02*
X156200000Y-51720000D01*
X150200000Y-61720000D02*
X150200000Y-51720000D01*
X156200000Y-42720000D02*
X128200000Y-42720000D01*
X156200000Y-42720000D02*
X156200000Y-51720000D01*
D11*
%TO.C,C4*%
X135680000Y-81940000D02*
X135680000Y-77400000D01*
X135736000Y-81940000D02*
X135680000Y-81940000D01*
X137764000Y-77400000D02*
X137820000Y-77400000D01*
X137820000Y-77400000D02*
X137820000Y-81940000D01*
%TO.C,C6*%
X119830000Y-100630000D02*
X119830000Y-96090000D01*
X119886000Y-100630000D02*
X119830000Y-100630000D01*
X121914000Y-96090000D02*
X121970000Y-96090000D01*
X121970000Y-96090000D02*
X121970000Y-100630000D01*
%TD*%
M02*
