M48
; DRILL file {KiCad 9.0.5} date 2025-11-26T15:05:33+0100
; FORMAT={-:-/ absolute / metric / decimal}
; #@! TF.CreationDate,2025-11-26T15:05:33+01:00
; #@! TF.GenerationSoftware,Kicad,Pcbnew,9.0.5
; #@! TF.FileFunction,Plated,1,2,PTH
FMAT,2
METRIC
; #@! TA.AperFunction,Plated,PTH,ViaDrill
T1C0.300
; #@! TA.AperFunction,Plated,PTH,ComponentDrill
T2C0.800
; #@! TA.AperFunction,Plated,PTH,ComponentDrill
T3C0.900
; #@! TA.AperFunction,Plated,PTH,ComponentDrill
T4C1.000
; #@! TA.AperFunction,Plated,PTH,ComponentDrill
T5C1.100
%
G90
G05
T1
X128.0Y-111.92
X128.125Y-110.795
X133.785Y-119.635
X145.75Y-119.67
X150.1Y-105.32
X151.75Y-104.05
T2
X113.59Y-105.67
X113.59Y-109.17
X116.75Y-95.67
X116.75Y-100.67
X120.9Y-95.86
X120.9Y-100.86
X121.17Y-124.17
X121.17Y-128.17
X123.75Y-105.67
X123.75Y-109.17
X125.4Y-97.86
X125.4Y-99.86
X131.33Y-124.17
X131.33Y-128.17
X132.25Y-78.67
X132.25Y-80.67
X136.75Y-77.17
X136.75Y-82.17
X141.25Y-78.67
X141.25Y-80.67
X145.75Y-77.17
X145.75Y-82.17
T3
X109.21Y-99.17
X111.75Y-99.17
X118.475Y-134.67
X121.015Y-134.67
T4
X66.75Y-79.97
X66.75Y-82.51
X66.75Y-85.05
X66.75Y-87.59
X66.75Y-90.13
X66.75Y-92.67
X66.75Y-95.21
X66.75Y-97.75
X66.75Y-100.29
X66.75Y-102.83
X66.75Y-105.37
X98.75Y-64.13
X98.75Y-66.67
X98.75Y-69.21
X98.75Y-71.75
X98.75Y-74.29
X98.75Y-76.83
X105.75Y-53.17
X108.29Y-53.17
X110.83Y-53.17
X122.877Y-64.161
X122.877Y-66.701
X122.877Y-69.241
X122.877Y-71.781
X122.877Y-74.321
X122.877Y-76.861
X147.75Y-70.405
X147.75Y-72.945
T5
X93.5Y-98.42
X93.5Y-102.92
X93.75Y-87.17
X93.75Y-91.67
X100.0Y-98.42
X100.0Y-102.92
X100.25Y-87.17
X100.25Y-91.67
X104.0Y-131.92
X104.0Y-136.42
X110.5Y-131.92
X110.5Y-136.42
M30
