%TF.GenerationSoftware,KiCad,Pcbnew,9.0.5*%
%TF.CreationDate,2025-11-26T15:00:46+01:00*%
%TF.ProjectId,planA,706c616e-412e-46b6-9963-61645f706362,rev?*%
%TF.SameCoordinates,Original*%
%TF.FileFunction,Paste,Top*%
%TF.FilePolarity,Positive*%
%FSLAX46Y46*%
G04 Gerber Fmt 4.6, Leading zero omitted, Abs format (unit mm)*
G04 Created by KiCad (PCBNEW 9.0.5) date 2025-11-26 15:00:46*
%MOMM*%
%LPD*%
G01*
G04 APERTURE LIST*
G04 Aperture macros list*
%AMRoundRect*
0 Rectangle with rounded corners*
0 $1 Rounding radius*
0 $2 $3 $4 $5 $6 $7 $8 $9 X,Y pos of 4 corners*
0 Add a 4 corners polygon primitive as box body*
4,1,4,$2,$3,$4,$5,$6,$7,$8,$9,$2,$3,0*
0 Add four circle primitives for the rounded corners*
1,1,$1+$1,$2,$3*
1,1,$1+$1,$4,$5*
1,1,$1+$1,$6,$7*
1,1,$1+$1,$8,$9*
0 Add four rect primitives between the rounded corners*
20,1,$1+$1,$2,$3,$4,$5,0*
20,1,$1+$1,$4,$5,$6,$7,0*
20,1,$1+$1,$6,$7,$8,$9,0*
20,1,$1+$1,$8,$9,$2,$3,0*%
G04 Aperture macros list end*
%ADD10RoundRect,0.375000X0.375000X-0.625000X0.375000X0.625000X-0.375000X0.625000X-0.375000X-0.625000X0*%
%ADD11RoundRect,0.500000X1.400000X-0.500000X1.400000X0.500000X-1.400000X0.500000X-1.400000X-0.500000X0*%
%ADD12R,1.500000X0.900000*%
%ADD13R,0.900000X1.500000*%
%ADD14R,0.900000X0.900000*%
G04 APERTURE END LIST*
D10*
%TO.C,U2*%
X136950000Y-72820000D03*
X139250000Y-72820000D03*
D11*
X139250000Y-66520000D03*
D10*
X141550000Y-72820000D03*
%TD*%
D12*
%TO.C,U1*%
X130750000Y-100240000D03*
X130750000Y-101510000D03*
X130750000Y-102780000D03*
X130750000Y-104050000D03*
X130750000Y-105320000D03*
X130750000Y-106590000D03*
X130750000Y-107860000D03*
X130750000Y-109130000D03*
X130750000Y-110400000D03*
X130750000Y-111670000D03*
X130750000Y-112940000D03*
X130750000Y-114210000D03*
X130750000Y-115480000D03*
X130750000Y-116750000D03*
D13*
X132515000Y-118000000D03*
X133785000Y-118000000D03*
X135055000Y-118000000D03*
X136325000Y-118000000D03*
X137595000Y-118000000D03*
X138865000Y-118000000D03*
X140135000Y-118000000D03*
X141405000Y-118000000D03*
X142675000Y-118000000D03*
X143945000Y-118000000D03*
X145215000Y-118000000D03*
X146485000Y-118000000D03*
D12*
X148250000Y-116750000D03*
X148250000Y-115480000D03*
X148250000Y-114210000D03*
X148250000Y-112940000D03*
X148250000Y-111670000D03*
X148250000Y-110400000D03*
X148250000Y-109130000D03*
X148250000Y-107860000D03*
X148250000Y-106590000D03*
X148250000Y-105320000D03*
X148250000Y-104050000D03*
X148250000Y-102780000D03*
X148250000Y-101510000D03*
X148250000Y-100240000D03*
D14*
X136600000Y-106560000D03*
X136600000Y-107960000D03*
X136600000Y-109360000D03*
X136600000Y-109360000D03*
X138000000Y-106560000D03*
X138000000Y-106560000D03*
X138000000Y-107960000D03*
X138000000Y-109360000D03*
X139400000Y-106560000D03*
X139400000Y-107960000D03*
X139400000Y-109360000D03*
%TD*%
M02*
