%TF.GenerationSoftware,KiCad,Pcbnew,9.0.5*%
%TF.CreationDate,2025-11-26T15:00:46+01:00*%
%TF.ProjectId,planA,706c616e-412e-46b6-9963-61645f706362,rev?*%
%TF.SameCoordinates,Original*%
%TF.FileFunction,Soldermask,Bot*%
%TF.FilePolarity,Negative*%
%FSLAX46Y46*%
G04 Gerber Fmt 4.6, Leading zero omitted, Abs format (unit mm)*
G04 Created by KiCad (PCBNEW 9.0.5) date 2025-11-26 15:00:46*
%MOMM*%
%LPD*%
G01*
G04 APERTURE LIST*
G04 Aperture macros list*
%AMRoundRect*
0 Rectangle with rounded corners*
0 $1 Rounding radius*
0 $2 $3 $4 $5 $6 $7 $8 $9 X,Y pos of 4 corners*
0 Add a 4 corners polygon primitive as box body*
4,1,4,$2,$3,$4,$5,$6,$7,$8,$9,$2,$3,0*
0 Add four circle primitives for the rounded corners*
1,1,$1+$1,$2,$3*
1,1,$1+$1,$4,$5*
1,1,$1+$1,$6,$7*
1,1,$1+$1,$8,$9*
0 Add four rect primitives between the rounded corners*
20,1,$1+$1,$2,$3,$4,$5,0*
20,1,$1+$1,$4,$5,$6,$7,0*
20,1,$1+$1,$6,$7,$8,$9,0*
20,1,$1+$1,$8,$9,$2,$3,0*%
G04 Aperture macros list end*
%ADD10C,1.600000*%
%ADD11R,1.800000X1.800000*%
%ADD12C,1.800000*%
%ADD13RoundRect,0.250000X-0.550000X0.550000X-0.550000X-0.550000X0.550000X-0.550000X0.550000X0.550000X0*%
%ADD14R,1.700000X1.700000*%
%ADD15C,1.700000*%
%ADD16RoundRect,0.250000X0.550000X-0.550000X0.550000X0.550000X-0.550000X0.550000X-0.550000X-0.550000X0*%
%ADD17C,2.000000*%
G04 APERTURE END LIST*
D10*
%TO.C,C2*%
X145750000Y-77170000D03*
X145750000Y-82170000D03*
%TD*%
D11*
%TO.C,Power*%
X111750000Y-99170000D03*
D12*
X109210000Y-99170000D03*
%TD*%
D10*
%TO.C,R4*%
X121170000Y-124170000D03*
X131330000Y-124170000D03*
%TD*%
D13*
%TO.C,C1*%
X141250000Y-78670000D03*
D10*
X141250000Y-80670000D03*
%TD*%
D14*
%TO.C,Battery*%
X147750000Y-72945000D03*
D15*
X147750000Y-70405000D03*
%TD*%
D14*
%TO.C,SN1*%
X66750000Y-105370000D03*
D15*
X66750000Y-102830000D03*
X66750000Y-100290000D03*
X66750000Y-97750000D03*
X66750000Y-95210000D03*
X66750000Y-92670000D03*
X66750000Y-90130000D03*
X66750000Y-87590000D03*
X66750000Y-85050000D03*
X66750000Y-82510000D03*
X66750000Y-79970000D03*
%TD*%
D16*
%TO.C,C5*%
X125400000Y-99860000D03*
D10*
X125400000Y-97860000D03*
%TD*%
%TO.C,C7*%
X116750000Y-100670000D03*
X116750000Y-95670000D03*
%TD*%
D14*
%TO.C,J1*%
X98750000Y-64130000D03*
D15*
X98750000Y-66670000D03*
X98750000Y-69210000D03*
X98750000Y-71750000D03*
X98750000Y-74290000D03*
X98750000Y-76830000D03*
%TD*%
D10*
%TO.C,R1*%
X123750000Y-109170000D03*
X113590000Y-109170000D03*
%TD*%
D17*
%TO.C,Boot*%
X93500000Y-98420000D03*
X100000000Y-98420000D03*
X93500000Y-102920000D03*
X100000000Y-102920000D03*
%TD*%
D13*
%TO.C,C3*%
X132250000Y-78670000D03*
D10*
X132250000Y-80670000D03*
%TD*%
%TO.C,R2*%
X123750000Y-105670000D03*
X113590000Y-105670000D03*
%TD*%
D14*
%TO.C,USB Vcc Bat.*%
X110830000Y-53170000D03*
D15*
X108290000Y-53170000D03*
X105750000Y-53170000D03*
%TD*%
D17*
%TO.C,Start/Stop*%
X104000000Y-131920000D03*
X110500000Y-131920000D03*
X104000000Y-136420000D03*
X110500000Y-136420000D03*
%TD*%
D11*
%TO.C,Wifi*%
X118475000Y-134670000D03*
D12*
X121015000Y-134670000D03*
%TD*%
D17*
%TO.C,Reset*%
X93750000Y-87170000D03*
X100250000Y-87170000D03*
X93750000Y-91670000D03*
X100250000Y-91670000D03*
%TD*%
D10*
%TO.C,R3*%
X121170000Y-128170000D03*
X131330000Y-128170000D03*
%TD*%
D14*
%TO.C,DRV8833*%
X122877500Y-64161250D03*
D15*
X122877500Y-66701250D03*
X122877500Y-69241250D03*
X122877500Y-71781250D03*
X122877500Y-74321250D03*
X122877500Y-76861250D03*
%TD*%
D10*
%TO.C,C4*%
X136750000Y-77170000D03*
X136750000Y-82170000D03*
%TD*%
%TO.C,C6*%
X120900000Y-100860000D03*
X120900000Y-95860000D03*
%TD*%
M02*
